<svg xmlns="http://www.w3.org/2000/svg" enable-background="new 0 0 3100 2000" viewBox="0 0 3100 2000"><g transform="translate(-538.517 -394)"><path fill="#fb8d62" d="M3450.5 1756.2v444h-2817v-444h200.4V1438h196.4v-283h113.9v43.2h31.4v39.3h31.4v43.2h55V1540h47.1v-231.8h188.6V1540h55v-455.7h542.2v373.2h157.2V832.9H2755v746.5h66.8V982.2H3030v597.2h47.1V1155h102.1v43.2h27.5v39.3h51.1v43.2h51.1v475.4h141.6z" enable-background="new" opacity=".2"/><path fill="#eeb125" d="M1853.7 1464.1c-55.5 13.8-105 45.2-141.3 89.4-59 73.3-103.7 205.7-207.4 348.7-51.9 35.8 42.9 280.8 42.9 280.8s132.3-109.1 203.9-209.2 101.9-509.7 101.9-509.7z"/><path fill="#ffc73c" d="M1985.9 1388.9s-169.9 51.9-193.1 110.9-90.9 222.5-42 624.6c2.3 51.1 664.9-13.9 664.9-13.9-6.7-80.3 3.6-161.1 30.2-237.1 41.8 41.8 97.6 139.5 113.9 165.1-18.6 0-423.3 54.8-444.5 93.9-18.6 27.9-8.8 92.1 35.4 103.7 44.2 11.6 623 4.6 662.6-72.1 65.1-97.6-201.3-537.5-335.6-664.2-80.6-68.7-244.9-106.1-268.2-110.9s48.5 117.1-94.1 128.8c-109.8 3.6-136.8-30.4-129.5-128.8"/><path fill="#df7348" d="M1491.5 2124.6h485.2c21.2 0 38.3 17.2 38.3 38.3 0 21.2-17.2 38.3-38.3 38.3h-485.2c-21.2 0-38.3-17.2-38.3-38.3 0-21.1 17.1-38.3 38.3-38.3z"/><path fill="#fb8d62" d="M763.3 1593.5h679c17 0 30.8 13.7 30.8 30.6l98 498.1c.8 15.5-20.6 67.9-37.6 67.9l-667.4-24.6c-16.8 0-30.4-13.6-30.4-30.3v-.3l-126.2-484.6c.1-16.9 36.8-56.8 53.8-56.8z"/><path fill="#8b2f97" d="M741.8 1629.2h675.6c16.9 0 30.6 13.7 30.6 30.6l97.5 498.1c.8 15.5-2.6 43.1-19.5 43.1l-681.9.1c-16.7 0-30.3-13.6-30.2-30.3v-.3l-101.3-510.7c-.6-16.3 12-30 28.3-30.6h.9z"/><ellipse cx="1117.1" cy="1901.4" fill="#fff" enable-background="new" opacity=".4" rx="63.8" ry="76.6" transform="rotate(-45.97 1117.065 1901.408)"/><path fill="#8b2f97" d="M2591 531.1h645.1c50.5 0 93.4 33.5 91.4 91.9v316.7c0 50.8-21.2 92.1-91.4 91.9h-450l-175.9 133.8v-133.8c-50.5 0-110.9-5.7-110.7-91.9V623c0-50.6 40.9-91.8 91.5-91.9z"/><g opacity=".4"><path fill="#fff" d="M2653.4 663.9h81.7c14.1 0 25.5 11.4 25.5 25.5s-11.4 25.5-25.5 25.5h-81.7c-14.1 0-25.5-11.4-25.5-25.5s11.4-25.5 25.5-25.5z"/><path fill="#fff" d="M3092.7 760.9h81.7c14.1 0 25.5 11.4 25.5 25.5s-11.4 25.5-25.5 25.5h-81.7c-14.1 0-25.5-11.4-25.5-25.5-.1-14 11.4-25.5 25.5-25.5z"/><path fill="#fff" d="M2653.4 847.8h234.9c14.1 0 25.5 11.4 25.5 25.5s-11.4 25.5-25.5 25.5h-234.9c-14.1 0-25.5-11.4-25.5-25.5s11.4-25.5 25.5-25.5z"/><path fill="#fff" d="M2816.9 663.9h362.6c14.1 0 25.5 11.4 25.5 25.5s-11.4 25.5-25.5 25.5h-362.6c-14.1 0-25.5-11.4-25.5-25.5-.1-14.1 11.4-25.5 25.5-25.5z"/><path fill="#fff" d="M2653.4 760.9H3011c14.1 0 25.5 11.4 25.5 25.5s-11.4 25.5-25.5 25.5h-357.5c-14.1 0-25.5-11.4-25.5-25.5-.1-14 11.3-25.5 25.4-25.5z"/></g><path fill="#b258be" d="M3077.4 1981.6h35.8c48 0 86.8 38.9 86.8 86.8 0 48-38.9 86.8-86.8 86.8h-35.8c-48 0-86.8-38.9-86.8-86.8-.1-47.9 38.8-86.8 86.8-86.8z"/><path fill="#fff" d="M3082.5 2012.3h30.6c31 0 56.2 25.2 56.2 56.2 0 31-25.2 56.2-56.2 56.2h-30.6c-31 0-56.2-25.2-56.2-56.2 0-31.1 25.1-56.2 56.2-56.2z" enable-background="new" opacity=".8"/><path fill="#8b2f97" d="M2888.4 1915.2h204.3v250.3c0 22.6-18.3 40.9-40.9 40.9h-122.6c-22.6 0-40.9-18.3-40.9-40.9v-250.3h.1z"/><path fill="#b258be" d="M2888.4 1915.2h163.4v250.3c0 22.6-18.3 40.9-40.9 40.9h-81.7c-22.6 0-40.9-18.3-40.9-40.9v-250.3h.1z"/><path fill="#fff" d="M2926.7 1935.7c7.1 0 12.8 5.7 12.8 12.8v132.8c0 7.1-5.7 12.8-12.8 12.8-7.1 0-12.8-5.7-12.8-12.8v-132.8c0-7.1 5.7-12.8 12.8-12.8z" enable-background="new" opacity=".4"/><path fill="#bbb" d="M2999.8 1534.1s17.9 26.1-8.3 70.2c-26.1 44-76.4 72.9-72.3 127.9 2.8 68.8 51.6 67.4 65.4 154.1 39.9-52.3 1.4-105.9 6.9-154.1 5.5-50.9 16.8-92.5 25.1-137.9 8.2-45.4-16.8-60.2-16.8-60.2z" enable-background="new" opacity=".2"/><path fill="#eeb125" d="M1959.8 1399.1s-41.3 151.3 121.7 155.5c163 4.2 173.3-102.8 165.9-156.8-64.9-14.6-42.9-10.4-42.9-10.4-4.1 11.9 37 130.1-104 129.6-32.8 0-131.5 7.2-113.7-129.6-9.5 2.8-18.5 6.7-27 11.7z"/><path fill="#eeb125" d="m2404.7 1813.3 39.9 57.8s-32.1 169.7-35.4 189.2c-43.1 4.9-267.8 42.3-283.3 53.7-15.5 11.4-13.8 22.8-13.8 22.8l-197-9s116.1-57.1 220.3-79.1c125.6-23.1 208.5-86.8 239.1-141.8 30.8-54.9 30.2-93.6 30.2-93.6z"/><path fill="#f8a07a" d="M2138.3 2131.2c-7.5 2.8-17.1 11.4-30.1 9-13-2.4-119.7-33.4-164.4-27.7-44.8 5.7-164.8 91.6-148.3 149.4 9.6 16.5 27.5 6.9 26.1-5.5-1.4-12.4-4.1 16.5 15.1 15.1 19.3-1.4 23.4-17.9 22-22-1.4-4.1-2.8 23.4 15.1 22 24.8 0 45.4-42.6 92.2-44 46.8-1.4 69.7 27.1 102.3 22 32.6-5.1 35.8-26.3 61.9-30.3 26-4.1 57.8 2.4 47.2-40.7-10.6-43.3-33.1-52.7-39.1-47.3z"/><g><path fill="#ffd0a6" d="M2006.4 1320c-4.5 27.8-11.7 55.1-21.4 81.5-11.6 23.6-24.1 60.2 26.7 94.6 50.8 34.4 127.5 26.2 162.4 2.6 34.9-23.6 47.6-54.6 31.3-106.1-6.3-26.7 0-164.5 0-164.5l-199 91.9z"/><path fill="#eebd92" d="M2003.1 1331.3s-11.3 55.1-16.3 63.2c-5 8.1 93.9 11.9 129.6-10.6 51.9-28.5 86.4-78.9 86.4-78.9v-58.9s-52.6 82.6-115.8 85.2c-63.2 2.5-83.9 0-83.9 0z"/></g><ellipse cx="1851.6" cy="1136.3" fill="#ffc73c" rx="51.1" ry="89.4" transform="rotate(-19.999 1851.682 1136.39)"/><g><path fill="#0b2e4e" d="M1867.1 1122.5s-69.7-44.2-79-109.3 13.9-67.4 0-125.5c-13.9-58.1-82.1-121.4 0-211.6 108.3-85.5 165.1 27.9 220.9 30.2 55.8 2.3 118.6-51.1 183.7-44.2 65.1 7 95.3 18.6 141.8 125.5 25.6 46.5 69.7 27.9 97.6 100 20.9 60.4-79 190.6-97.6 209.2-18.6 18.6-16.3 95.3-116.2 153.4-44.2 20.9 23.2-102.3 23.2-102.3s-25.6 30.2-79 34.9c-44.2-60.4-16.3-83.7-111.6-169.7-95.5-85.9-183.8 109.4-183.8 109.4z"/><path fill="none" stroke="#fff" stroke-width="2" d="M1962.8 759.5s189.6-25 227.1 16.1c37.6 41.1 3.6 55.4 14.3 96.6 10.7 41.1 41.1 44.7 39.3 82.3" enable-background="new" opacity=".4"/><path fill="#041a2f" d="M1851.9 1068.9s-48.3-78.7-30.4-132.3c17.9-53.6 60.8-69.7 93-75.1 32.2-5.5-62.6 207.4-62.6 207.4z"/></g><path fill="#ffd0a6" d="M1910.9 868.6s-68 48.3-66.2 191.3c3.6 114.4 63.2 276.7 193.4 295.8 72.1 9.5 159.8-78.3 168.3-111.1s16.9-110 8.5-104.8c-8.5 5.3-29.6 43.4-43.4 41.3-21.2-2.1-2.4-123.4-36.8-176-24.3-41.3-100.6-35.5-172.2-97.4-35.1-28.4-51.6-39.1-51.6-39.1z"/><path fill="#eebd92" d="M1876 911c43.7 30.6 102.3 57.7 208.2 83.9 67.4 26.1 76.6 161.8 76.6 161.8s6.2-118.4-30.9-156.9c-21.9-30.1-69.1-35.1-150.4-80.5-16.1-9-34.4-25.3-69.5-51.3-5.5-.6-18.5 12.7-34 43z"/><g><path fill="none" stroke="#ffc73c" stroke-width="4" d="M2237 1197.1s-66 97.7-207.7 85.3"/><ellipse cx="2004.8" cy="1279.3" fill="#ffc73c" rx="46" ry="33.2"/></g><g><ellipse cx="2260.1" cy="1126.2" fill="#ffc73c" rx="99.6" ry="86.8" transform="rotate(-79.98 2260.083 1126.097)"/><ellipse cx="2270.4" cy="1126.1" fill="#8b2f97" rx="74.1" ry="56.2" transform="rotate(-76.998 2270.365 1126.061)"/></g><path fill="none" stroke="#ffc73c" stroke-width="4" d="M1946.1 714.5c47.4-24.9 101.7-33.5 154.5-24.3 80.4 18 165.1 68.8 176.7 194.7 3.2 92.1 0 192.6 0 192.6"/><path fill="#0b2e4e" d="M1946.1 675c16 14.3 35.5 24 56.4 28.4 38.2 3.1-25.4 27.8-25.4 27.8l-57.8 4.1s-18.7-30.1 0-44.8c18.8-14.7 26.8-15.5 26.8-15.5z"/></g></svg>