<svg xmlns="http://www.w3.org/2000/svg" xmlns:xlink="http://www.w3.org/1999/xlink" id="Layer_1" x="0" y="0" enable-background="new 0 0 2600 1560" version="1.1" viewBox="0 0 2600 1560" xml:space="preserve"><ellipse cx="1176.8" cy="1380.6" fill="#43457b" opacity=".3" rx="784.6" ry="20.3"/><path fill="#363868" d="M521.9,999.1c-5.7-1.9-10.5-2.3-13.8,2.2c-9.3,12.5,30.1,57,30.1,57s34.8,4.6,63.9,5.9
				c-24.2-2.7-43.3-5.7-43.3-5.7S534.5,1026.7,521.9,999.1z"/><path fill="#43457b" d="M640.8,1059.1c1-12.9,29.1-50.1,17.6-65.4c-11.6-15.3-34.1,17-52,0.7c-17.9-16.3-27.2,5.2-48,12.2
				c-13.3,4.4-26.4-4-36.5-7.5c12.7,27.6,36.9,59.5,36.9,59.5s19,3,43.3,5.7C622.7,1065.2,640.4,1064.4,640.8,1059.1z"/><path fill="#43457b" d="M734,1305.6c-6.3-56.9-49.8-178.3-82.8-217.5l-0.4,1H541.6c0,0-45.9,133.8-54.1,175.5
				c-8.1,41,2.5,89.8,33.4,100.4c22,7.6,104.8,3.7,150.6,7.7c5.4-0.7,10.7-2,15.9-3.8C707.8,1361.7,738.3,1344.4,734,1305.6z"/><path fill="#363868" d="M487.5,1264.6c6.3-32.1,35-118.8,47.8-157c3.7-11.1,14.1-18.5,25.8-18.5h89.7l0.4-1c-0.4-0.5-0.9-1-1.3-1.5
				c-9.1-10.3-51.5-9.7-59.6-9.5c-0.5,0-0.9,0-1.3,0c-2.4-0.1-8-0.2-14.8,0c-15.8,0.4-38.5,2.3-44.9,9.5
				c-33.1,37.6-77.7,161.4-84.1,219c-4.3,38.8,26.2,56.1,46.6,63.3c8.8,3.1,17.9,4.6,27.1,4.6h69.9h1.4H660h0.2
				c3.8,0,7.5-0.3,11.2-0.8c-45.8-4-128.6-0.2-150.6-7.7C490,1354.4,479.4,1305.5,487.5,1264.6z"/><linearGradient id="SVGID_1_" x1="534.026" x2="645.177" y1="1069.917" y2="1069.917" gradientUnits="userSpaceOnUse"><stop offset=".001" stop-color="#febf00"/><stop offset=".984" stop-color="#ffdf00"/></linearGradient><path fill="url(#SVGID_1_)" d="M639,1057h-48.7H589h-48.7c-3.4,0-6.2,3.4-6.2,7.7v10.4c0,4.2,2.8,7.7,6.2,7.7H589h1.3H639
				c3.4,0,6.2-3.4,6.2-7.7v-10.4C645.2,1060.5,642.4,1057,639,1057z"/><path fill="#2c325e" d="M639,1057h-48.7H589h-48.7c-3.4,0-6.2,3.4-6.2,7.7v10.4c0,4.2,2.8,7.7,6.2,7.7H589h1.3H639
				c3.4,0,6.2-3.4,6.2-7.7v-10.4C645.2,1060.5,642.4,1057,639,1057z"/><linearGradient id="SVGID_2_" x1="534.026" x2="645.177" y1="1067.728" y2="1067.728" gradientUnits="userSpaceOnUse"><stop offset=".001" stop-color="#febf00"/><stop offset=".984" stop-color="#ffdf00"/></linearGradient><path fill="url(#SVGID_2_)" d="M639,1057h-48.7H589h-48.7c-3.4,0-6.2,2.8-6.2,6.4v8.7c0,3.5,2.8,6.4,6.2,6.4H589h1.3H639
				c3.4,0,6.2-2.8,6.2-6.4v-8.7C645.2,1059.9,642.4,1057,639,1057z"/><text fill="#fea600" font-family="Calibri-Bold" font-size="186.13" transform="rotate(-2.292 32476.854 -13344.635)">$</text><path fill="#363868" d="M711.1,1102.6c-4.1-1.4-7.6-1.6-10,1.6c-6.7,9,21.8,41.2,21.8,41.2s25.1,3.3,46.1,4.3
				c-17.5-2-31.2-4.1-31.2-4.1S720.2,1122.5,711.1,1102.6z"/><path fill="#43457b" d="M797,1145.9c0.7-9.3,21-36.2,12.7-47.2c-8.4-11-24.6,12.3-37.5,0.5c-12.9-11.8-19.6,3.8-34.7,8.8
				c-9.6,3.2-19.1-2.9-26.4-5.4c9.1,19.9,26.6,43,26.6,43s13.7,2.1,31.2,4.1C783.9,1150.3,796.7,1149.7,797,1145.9z"/><path fill="#43457b" d="M864.2,1323.9c-4.6-41.1-35.9-128.7-59.8-157.1l-0.3,0.7h-78.9c0,0-33.1,96.6-39.1,126.7
				c-5.8,29.6,1.8,64.9,24.1,72.5c15.9,5.5,75.7,2.7,108.7,5.6c3.9-0.5,7.7-1.4,11.5-2.8C845.3,1364.4,867.3,1351.9,864.2,1323.9z"/><path fill="#363868" d="M686.2,1294.3c4.6-23.2,25.3-85.8,34.5-113.3c2.7-8,10.2-13.4,18.6-13.4h64.8l0.3-0.7
				c-0.3-0.4-0.6-0.7-0.9-1.1c-6.5-7.4-37.2-7-43-6.8c-0.3,0-0.6,0-1,0c-1.7,0-5.8-0.1-10.7,0c-11.4,0.3-27.8,1.7-32.4,6.8
				c-23.9,27.1-56.1,116.5-60.7,158.2c-3.1,28,18.9,40.5,33.7,45.7c6.3,2.2,12.9,3.3,19.6,3.3h50.5h1h50.4h0.1
				c2.7,0,5.4-0.2,8.1-0.6c-33.1-2.9-92.9-0.1-108.7-5.6C688.1,1359.1,680.4,1323.8,686.2,1294.3z"/><linearGradient id="SVGID_3_" x1="719.854" x2="800.114" y1="1153.695" y2="1153.695" gradientUnits="userSpaceOnUse"><stop offset=".001" stop-color="#febf00"/><stop offset=".984" stop-color="#ffdf00"/></linearGradient><path fill="url(#SVGID_3_)" d="M795.6,1144.4h-35.2h-0.9h-35.2c-2.5,0-4.5,2.5-4.5,5.5v7.5c0,3.1,2,5.5,4.5,5.5h35.2h0.9h35.2
				c2.5,0,4.5-2.5,4.5-5.5v-7.5C800.1,1146.9,798.1,1144.4,795.6,1144.4z"/><path fill="#2c325e" d="M795.6,1144.4h-35.2h-0.9h-35.2c-2.5,0-4.5,2.5-4.5,5.5v7.5c0,3.1,2,5.5,4.5,5.5h35.2h0.9h35.2
				c2.5,0,4.5-2.5,4.5-5.5v-7.5C800.1,1146.9,798.1,1144.4,795.6,1144.4z"/><linearGradient id="SVGID_4_" x1="719.854" x2="800.114" y1="1152.114" y2="1152.114" gradientUnits="userSpaceOnUse"><stop offset=".001" stop-color="#febf00"/><stop offset=".984" stop-color="#ffdf00"/></linearGradient><path fill="url(#SVGID_4_)" d="M795.6,1144.4h-35.2h-0.9h-35.2c-2.5,0-4.5,2.1-4.5,4.6v6.3c0,2.5,2,4.6,4.5,4.6h35.2h0.9h35.2
				c2.5,0,4.5-2.1,4.5-4.6v-6.3C800.1,1146.4,798.1,1144.4,795.6,1144.4z"/><text fill="#fea600" font-family="Calibri-Bold" font-size="134.4" transform="rotate(-2.292 33216.545 -17857.163)">$</text><g><linearGradient id="SVGID_5_" x1="12531.36" x2="12700.288" y1="1226.869" y2="1226.869" gradientTransform="matrix(-1 0 0 1 14739.09 0)" gradientUnits="userSpaceOnUse"><stop offset="0" stop-color="#5e6398"/><stop offset="1" stop-color="#292e6f"/></linearGradient><path fill="url(#SVGID_5_)" d="M2187.3,1198.6c6.5,11.9,20.4,3.6,20.4,3.6s-0.8-3.9-7.1-7.2c-4.7-2.5-11.4-0.4-13.8,0.4l-7.7-0.2l-0.1,0
				c-1.7,0.1-3.4,0.2-5.1,0.4c22-7.8,11.6-33.7,11.6-33.7s-6.9,0.3-14.2,10c-5.9,7.8-3.6,21.1-2.9,24.3c-8.8,1.3-17.2,3.5-25.3,6.4
				c1-1,2.1-2.1,3.2-3.4c8.4-10,4.7-29,4.7-29c-30,3.8-24,32-22.2,38.5c-9.8,4.7-18.9,10.3-27.1,16.1c2.1-2.9,4.3-7.1,5.9-13
				c3.8-14.1-8.9-31.7-8.9-31.7c-29.4,18.5-8.2,45.2-4.1,50c-5.3,4.1-10.1,8.2-14.5,12.1c-4.8,4.3-9.2,8.6-13.2,12.8
				c1.5-3.9,2.7-10.1,1.5-19c-2.1-15.8-22.3-28.2-22.3-28.2c-21.4,30.3,9.2,48.3,16.4,51.9c-13.6,14.8-21.5,26.3-21.6,26.5l2.7,1.8
				c0.1-0.1,5.2-7.7,14.4-18.4c11.3,35.9,50.4,17.7,50.4,17.7s-1-9.8-15.4-19.4c-9.3-6.2-23.2-4.6-30.7-3.1
				c5.6-6.2,12.4-13.2,20.1-20.2c2.5-2.3,5.3-4.7,8.1-7c10.1,33.9,46.3,16.9,46.3,16.9s-0.9-9-14.1-17.8c-8.3-5.5-20.6-4.3-27.6-2.9
				c8.4-6.6,17.9-13.1,28.4-18.8c6.2,32,40.3,19.1,40.3,19.1s-0.2-8-11.4-16.8c-7.3-5.7-19-5.2-25.1-4.4
				c11.3-5.7,23.6-10.3,36.7-12.8c-0.5,29.1,30.9,23.4,30.9,23.4s1.1-6.8-6.9-15.9c-6.3-7.1-19.1-7.7-22.9-7.7
				c4.6-0.8,9.3-1.4,14-1.6L2187.3,1198.6z"/><linearGradient id="SVGID_6_" x1="4770.337" x2="4948.931" y1="1140.628" y2="1140.628" gradientTransform="matrix(-1 0 0 1 6846.733 0)" gradientUnits="userSpaceOnUse"><stop offset=".001" stop-color="#febf00"/><stop offset=".984" stop-color="#ffdf00"/></linearGradient><path fill="url(#SVGID_6_)" d="M1933,1371.4c0,0-65.3-147.5-18.1-284.5c47.3-137,161.4-177.1,161.4-177.1s-67.8,78.5-28.4,200.8
						c37.2,115.7-33.7,260.8-33.7,260.8H1933z"/><path fill="#fff" d="M1956.1,1371.4c0,0-16.7-300,54.1-378.9c-64.4,99.5-37.6,378.9-37.6,378.9H1956.1z" opacity=".3"/><linearGradient id="SVGID_7_" x1="-5431.766" x2="-5363.508" y1="1271.331" y2="1336.527" gradientTransform="translate(7435.591)" gradientUnits="userSpaceOnUse"><stop offset=".001" stop-color="#febf00"/><stop offset=".984" stop-color="#ffdf00"/></linearGradient><path fill="url(#SVGID_7_)" d="M2068.4,1371.4h-69.9c2.8-12.3,12.8-49.5,37.9-77.6c30.5-34.1,68.9-30.8,68.9-30.8s-20.9,22.9-24.1,64.2
					C2079.9,1343.7,2074.4,1359.1,2068.4,1371.4z"/><linearGradient id="SVGID_8_" x1="4876.459" x2="5068.976" y1="1254.796" y2="1254.796" gradientTransform="matrix(-1 0 0 1 6846.733 0)" gradientUnits="userSpaceOnUse"><stop offset="0" stop-color="#3393eb"/><stop offset=".999" stop-color="#37bedf"/></linearGradient><path fill="url(#SVGID_8_)" d="M1906.8,1208.3c50.9,66.3,62.3,152.8,63.5,163.1h-98.9c-25-23.1-55.7-60.5-55.9-105.4
					c-0.4-80.3-37.7-127.9-37.7-127.9S1852.6,1137.7,1906.8,1208.3z"/><path fill="#fff" d="M2021.1,1371.4h-5.2c9.9-22.8,35.3-76.2,59.1-87C2051.8,1300,2030.4,1348.3,2021.1,1371.4z" opacity=".3"/><path fill="#fff" d="M1939,1371.4h-10.3c-12-39.8-48.9-150.7-95.3-187.3C1881.4,1210.7,1926.2,1333.8,1939,1371.4z" opacity=".3"/><rect width="294.9" height="11.7" x="1814.2" y="1371.4" fill="#43457b" transform="rotate(-180 1961.64 1377.28)"/></g><linearGradient id="SVGID_9_" x1="1635.801" x2="1755.977" y1="240.164" y2="240.164" gradientUnits="userSpaceOnUse"><stop offset="0" stop-color="#5e6398"/><stop offset="1" stop-color="#292e6f"/></linearGradient><path fill="url(#SVGID_9_)" d="M1750.4,231.5h-10.2c-2.4,0-4.5-1.5-5.2-3.8c-0.7-2.2-1.6-4.3-2.7-6.4c-1.1-2.1-0.7-4.7,1-6.4l7.2-7.2
		c2.2-2.2,2.2-5.7,0-7.8l-4.4-4.4c-2.2-2.2-5.7-2.2-7.8,0l-7.2,7.2c-1.7,1.7-4.3,2.1-6.4,1c-2-1.1-4.2-1.9-6.4-2.7
		c-2.3-0.7-3.8-2.8-3.8-5.2v-10.2c0-3.1-2.5-5.5-5.5-5.5h-6.2c-3.1,0-5.5,2.5-5.5,5.5v10.2c0,2.4-1.5,4.5-3.8,5.2
		c-2.2,0.7-4.3,1.6-6.4,2.7c-2.1,1.1-4.7,0.7-6.4-1l-7.2-7.2c-2.2-2.2-5.7-2.2-7.8,0l-4.4,4.4c-2.2,2.2-2.2,5.7,0,7.8l7.2,7.2
		c1.7,1.7,2.1,4.3,1,6.4c-1.1,2-1.9,4.2-2.7,6.4c-0.7,2.3-2.8,3.8-5.2,3.8h-10.2c-3.1,0-5.5,2.5-5.5,5.5v6.2c0,3.1,2.5,5.5,5.5,5.5
		h10.2c2.4,0,4.5,1.5,5.2,3.8c0.7,2.2,1.6,4.3,2.7,6.4c1.1,2.1,0.7,4.7-1,6.4l-7.2,7.2c-2.2,2.2-2.2,5.7,0,7.8l4.4,4.4
		c2.2,2.2,5.7,2.2,7.8,0l7.2-7.2c1.7-1.7,4.3-2.1,6.4-1c2,1.1,4.2,1.9,6.4,2.7c2.3,0.7,3.8,2.8,3.8,5.2v10.2c0,3.1,2.5,5.5,5.5,5.5
		h6.2c3.1,0,5.5-2.5,5.5-5.5v-10.2c0-2.4,1.5-4.5,3.8-5.2c2.2-0.7,4.3-1.6,6.4-2.7c2.1-1.1,4.7-0.7,6.4,1l7.2,7.2
		c2.2,2.2,5.7,2.2,7.8,0l4.4-4.4c2.2-2.2,2.2-5.7,0-7.8l-7.2-7.2c-1.7-1.7-2.1-4.3-1-6.4c1.1-2,1.9-4.2,2.7-6.4
		c0.7-2.3,2.8-3.8,5.2-3.8h10.2c3.1,0,5.5-2.5,5.5-5.5V237C1756,234,1753.5,231.5,1750.4,231.5z M1716.8,244.3
		c-1.6,8.3-8.4,15.1-16.7,16.7c-15,2.8-27.9-10-25-25c1.6-8.3,8.4-15.1,16.7-16.7C1706.7,216.5,1719.6,229.3,1716.8,244.3z"/><g><polygon fill="#fff" points="1137.1 167 1301 240.8 1112.2 271.6 1128.5 225.6 1107.5 198.3 1247.8 226.5 1130.9 190.4 1126.8 178.8 1120 159.2"/><path fill="#fff" fill-rule="evenodd" d="M1060.4,187.6l-0.7,5.2c2.9,0.4,5.8,0.8,8.7,1.3l0.8-5.2C1066.3,188.4,1063.3,188,1060.4,187.6z" clip-rule="evenodd"/><polygon fill="#fff" fill-rule="evenodd" points="1084.9 191.7 1076.2 190.1 1075.3 195.3 1083.9 196.9" clip-rule="evenodd"/><polygon fill="#fff" fill-rule="evenodd" points="1100.5 195 1091.8 193.1 1090.7 198.3 1099.3 200.1" clip-rule="evenodd"/><polygon fill="#fff" fill-rule="evenodd" points="1021.3 189 1021.5 183.8 1012.6 183.5 1012.5 188.7" clip-rule="evenodd"/><path fill="#fff" fill-rule="evenodd" d="M1037.5,184.9c-3-0.2-5.9-0.6-8.9-0.7l-0.4,5.3c2.9,0.2,5.8,0.5,8.8,0.7L1037.5,184.9z" clip-rule="evenodd"/><path fill="#fff" fill-rule="evenodd" d="M1044.4,185.6l-0.6,5.3c2.9,0.3,5.8,0.6,8.7,1l0.7-5.2C1050.4,186.3,1047.4,185.9,1044.4,185.6z" clip-rule="evenodd"/><path fill="#fff" fill-rule="evenodd" d="M973.3,185.6c-3,0.5-5.9,0.9-8.9,1.5l1.1,5.2c2.8-0.6,5.7-1,8.6-1.5L973.3,185.6z" clip-rule="evenodd"/><path fill="#fff" fill-rule="evenodd" d="M980.4,184.7l0.6,5.3c2.9-0.4,5.8-0.5,8.7-0.7l-0.3-5.3C986.4,184.1,983.4,184.3,980.4,184.7z" clip-rule="evenodd"/><path fill="#fff" fill-rule="evenodd" d="M1005.4,188.7l0-5.3c-3-0.1-6,0.1-9,0.2l0.2,5.3C999.5,188.8,1002.5,188.6,1005.4,188.7z" clip-rule="evenodd"/><path fill="#fff" fill-rule="evenodd" d="M930.6,206.4l-3.1-4.3c-2.5,1.9-4.8,4-7.1,6.1l3.8,3.7C926.1,210,928.3,208.1,930.6,206.4z" clip-rule="evenodd"/><path fill="#fff" fill-rule="evenodd" d="M944,198.8l-2.1-4.9c-2.8,1.2-5.5,2.7-8.3,4.1l2.6,4.6C938.8,201.4,941.3,200,944,198.8z" clip-rule="evenodd"/><polygon fill="#fff" fill-rule="evenodd" points="958.6 193.8 957.3 188.7 948.6 191.3 950.3 196.3" clip-rule="evenodd"/><path fill="#fff" fill-rule="evenodd" d="M904.7,245.5c0,3.1,0.1,6.1,0.1,9.2l5.3-0.3c0-2.9-0.2-5.8-0.1-8.6L904.7,245.5z" clip-rule="evenodd"/><path fill="#fff" fill-rule="evenodd" d="M912.7,230.6l-5-1.6l-1.2,4.5c-0.4,1.5-0.9,3-1,4.6l5.2,0.8c0.1-1.4,0.5-2.8,0.9-4.2L912.7,230.6z" clip-rule="evenodd"/><path fill="#fff" fill-rule="evenodd" d="M917.3,220.7l2.3-3.6l-4.2-3.1l-2.5,4c-0.8,1.3-1.7,2.6-2.3,4.1l4.8,2.3
				C915.7,223.1,916.6,221.9,917.3,220.7z" clip-rule="evenodd"/><path fill="#fff" fill-rule="evenodd" d="M914.5,293.2c1.2,2.8,2.2,5.6,3.6,8.3l4.8-2.2c-1.4-2.6-2.3-5.3-3.5-8L914.5,293.2z" clip-rule="evenodd"/><polygon fill="#fff" fill-rule="evenodd" points="909 277.9 911.8 286.5 916.8 284.8 914.1 276.5" clip-rule="evenodd"/><polygon fill="#fff" fill-rule="evenodd" points="910.9 261.3 905.7 262 906.3 266.5 907.4 271 912.5 269.8 911.5 265.6" clip-rule="evenodd"/><polygon fill="#fff" fill-rule="evenodd" points="937.6 335.5 942.7 342.9 947 339.8 942 332.6" clip-rule="evenodd"/><polygon fill="#fff" fill-rule="evenodd" points="929 322 933.7 329.6 938.1 326.7 933.5 319.3" clip-rule="evenodd"/><path fill="#fff" fill-rule="evenodd" d="M921.2,308c1.3,2.7,2.9,5.3,4.3,7.9l4.6-2.6c-1.4-2.6-2.9-5.1-4.2-7.7L921.2,308z" clip-rule="evenodd"/><polygon fill="#fff" fill-rule="evenodd" points="970.9 370.1 966.8 373.6 972.7 380.3 976.7 376.7" clip-rule="evenodd"/><path fill="#fff" fill-rule="evenodd" d="M956.7,361.3c1.8,2.4,3.7,4.6,5.6,6.9l4.1-3.4c-1.9-2.3-3.8-4.5-5.6-6.8L956.7,361.3z" clip-rule="evenodd"/><path fill="#fff" fill-rule="evenodd" d="M946.9,348.7c1.8,2.4,3.5,4.8,5.4,7.1l4.2-3.2c-1.9-2.3-3.6-4.7-5.3-7L946.9,348.7z" clip-rule="evenodd"/><polygon fill="#fff" fill-rule="evenodd" points="1003.2 404.8 999.5 408.6 1005.8 414.8 1009.5 411.1" clip-rule="evenodd"/><polygon fill="#fff" fill-rule="evenodd" points="992.2 393.5 988.3 397.2 994.5 403.6 998.3 399.9" clip-rule="evenodd"/><polygon fill="#fff" fill-rule="evenodd" points="981.4 382 977.5 385.6 983.5 392.1 987.4 388.5" clip-rule="evenodd"/><polygon fill="#fff" fill-rule="evenodd" points="1037.8 437.4 1034.3 441.4 1040.9 447.2 1044.4 443.3" clip-rule="evenodd"/><polygon fill="#fff" fill-rule="evenodd" points="1026.1 426.8 1022.5 430.7 1029.1 436.7 1032.6 432.7" clip-rule="evenodd"/><polygon fill="#fff" fill-rule="evenodd" points="1014.6 416 1011 419.8 1017.4 425.9 1021 422.1" clip-rule="evenodd"/><polygon fill="#fff" fill-rule="evenodd" points="1074 468.2 1070.7 472.3 1077.6 477.9 1080.9 473.8" clip-rule="evenodd"/><polygon fill="#fff" fill-rule="evenodd" points="1061.8 458.1 1058.4 462.2 1065.2 467.9 1068.6 463.8" clip-rule="evenodd"/><polygon fill="#fff" fill-rule="evenodd" points="1049.8 447.9 1046.3 451.9 1053.1 457.7 1056.5 453.7" clip-rule="evenodd"/><polygon fill="#fff" fill-rule="evenodd" points="1118.7 502.5 1111.6 497.4 1108.4 501.6 1115.6 506.8" clip-rule="evenodd"/><polygon fill="#fff" fill-rule="evenodd" points="1098.9 487.9 1095.7 492.1 1102.8 497.4 1106 493.2" clip-rule="evenodd"/><polygon fill="#fff" fill-rule="evenodd" points="1086.5 478.2 1083.2 482.3 1090.2 487.8 1093.4 483.6" clip-rule="evenodd"/></g><g><path fill="#4f36e0" d="M1340.2,633.6c0,0-45.3-18.2-69-48.9c-23.7-30.7-41.2-154.2-41.2-154.2l110.2-39.8l0,0v-9.4l0,0
					l-118.7,42.9c0,0,18.9,133.1,44.4,166.1c25.5,33,74.3,52.7,74.3,52.7s0,0,0,0L1340.2,633.6
					C1340.3,633.6,1340.2,633.6,1340.2,633.6z"/><path fill="#5854d3" d="M1230.1,430.4c0,0,17.5,123.6,41.2,154.2c23.7,30.7,69,48.9,69,48.9s0,0,0,0v-243l0,0L1230.1,430.4z"/><linearGradient id="SVGID_10_" x1="1340.263" x2="1458.904" y1="512.118" y2="512.118" gradientUnits="userSpaceOnUse"><stop offset=".001" stop-color="#ac81f9"/><stop offset="1" stop-color="#6466d7"/></linearGradient><path fill="url(#SVGID_10_)" d="M1414.5,590.3c25.5-33,44.4-166.1,44.4-166.1l-118.6-42.9v9.4l110.2,39.8c0,0-17.5,123.6-41.2,154.2
					c-23.6,30.5-68.5,48.7-69,48.9v9.4C1340.7,642.8,1389.2,623.2,1414.5,590.3z"/><path fill="#6f62ed" d="M1409.2,584.7c23.7-30.7,41.2-154.2,41.2-154.2l-110.2-39.8v243C1340.7,633.4,1385.7,615.2,1409.2,584.7z
					"/><path fill="#fff" d="M1340.2,407.9l-94.5,34.2c0,0,15,106,35.3,132.3c20.3,26.3,59.2,42,59.2,42s38.9-15.7,59.2-42
					c20.3-26.3,35.3-132.3,35.3-132.3L1340.2,407.9z"/><linearGradient id="SVGID_11_" x1="1297.551" x2="1382.93" y1="499.62" y2="499.62" gradientUnits="userSpaceOnUse"><stop offset="0" stop-color="#a2ed94"/><stop offset="1" stop-color="#69c7b3"/></linearGradient><path fill="url(#SVGID_11_)" d="M1374.2,481.3h-0.2v-4.6c0-18.6-15.1-33.7-33.7-33.7c-18.6,0-33.7,15.1-33.7,33.7v4.6h-0.2
				c-4.8,0-8.8,3.9-8.8,8.8v57.3c0,4.8,3.9,8.8,8.8,8.8h33.9h33.9c4.8,0,8.8-3.9,8.8-8.8v-57.3
				C1382.9,485.3,1379,481.3,1374.2,481.3z M1346.2,513.4v26.4h-6h-6v-26.4c-4.2-2.5-6.8-7.6-5.4-13.1c1-4,4.2-7.3,8.2-8.3
				c1.1-0.3,2.1-0.4,3.1-0.4c1,0,2.1,0.1,3.1,0.4c4,1,7.2,4.3,8.2,8.3C1353,505.8,1350.4,510.9,1346.2,513.4z M1359.9,481.3h-19.7
				h-19.7v-4.6c0-10.9,8.8-19.7,19.7-19.7s19.7,8.8,19.7,19.7V481.3z"/><g><linearGradient id="SVGID_12_" x1="1296.938" x2="1315.032" y1="570.988" y2="570.988" gradientUnits="userSpaceOnUse"><stop offset=".001" stop-color="#febf00"/><stop offset=".984" stop-color="#ffdf00"/></linearGradient><polygon fill="url(#SVGID_12_)" points="1308.8 568 1306 562.4 1303.2 568 1296.9 569 1301.5 573.4 1300.4 579.6 1306 576.7 1311.6 579.6 1310.5 573.4 1315 569"/><linearGradient id="SVGID_13_" x1="1317.891" x2="1335.985" y1="570.988" y2="570.988" gradientUnits="userSpaceOnUse"><stop offset=".001" stop-color="#febf00"/><stop offset=".984" stop-color="#ffdf00"/></linearGradient><polygon fill="url(#SVGID_13_)" points="1329.7 568 1326.9 562.4 1324.1 568 1317.9 569 1322.4 573.4 1321.3 579.6 1326.9 576.7 1332.5 579.6 1331.5 573.4 1336 569"/><linearGradient id="SVGID_15_" x1="1338.844" x2="1356.938" y1="570.988" y2="570.988" gradientUnits="userSpaceOnUse"><stop offset=".001" stop-color="#febf00"/><stop offset=".984" stop-color="#ffdf00"/></linearGradient><polygon fill="url(#SVGID_15_)" points="1350.7 568 1347.9 562.4 1345.1 568 1338.8 569 1343.4 573.4 1342.3 579.6 1347.9 576.7 1353.5 579.6 1352.4 573.4 1356.9 569"/><linearGradient id="SVGID_16_" x1="1359.797" x2="1377.891" y1="570.988" y2="570.988" gradientUnits="userSpaceOnUse"><stop offset=".001" stop-color="#febf00"/><stop offset=".984" stop-color="#ffdf00"/></linearGradient><polygon fill="url(#SVGID_16_)" points="1377.9 569 1371.6 568 1368.8 562.4 1366 568 1359.8 569 1364.3 573.4 1363.3 579.6 1368.8 576.7 1374.4 579.6 1373.4 573.4"/></g></g><g><linearGradient id="SVGID_18_" x1="1758.652" x2="2084.641" y1="717.45" y2="717.45" gradientUnits="userSpaceOnUse"><stop offset="0" stop-color="#6443d7"/><stop offset="1" stop-color="#ac5df9"/></linearGradient><path fill="url(#SVGID_18_)" d="M1782.7,849.5l279.2-2c12.6-0.1,22.8-10.3,22.7-23l-0.1-23.5l-0.2-47.9l-0.7-145
			c-0.1-12.6-10.3-22.8-23-22.7l-279.2,2c-12.6,0.1-22.8,10.3-22.7,23l0.7,145l0.2,47.9l0.1,23.5
			C1759.8,839.3,1770.1,849.5,1782.7,849.5z"/><path fill="#fbae17" d="M2016.2,762.8l0.1,11.3l10.6-0.1l-0.1-11.6c-1.7,0.8-3.6,1.2-5.7,1.2
				C2019.4,763.7,2017.8,763.4,2016.2,762.8z"/><path fill="#fbae17" d="M2008.8,749.4c0,6.8,5.6,12.3,12.4,12.2c6.8,0,12.3-5.6,12.2-12.4c0-6.8-5.6-12.3-12.4-12.2
				C2014.3,737,2008.8,742.6,2008.8,749.4z"/><path fill="#fbae17" d="M2026.1,735.8l-0.1-9l-10.6,0.1l0.1,9.1c1.7-0.7,3.6-1.1,5.6-1.2C2022.8,734.9,2024.5,735.2,2026.1,735.8z"/><path fill="#fbae17" d="M1985.9,744.5l0.1,10.6l21.9-0.1c-0.7-1.7-1.2-3.6-1.2-5.6c0-1.8,0.3-3.4,0.9-5L1985.9,744.5z"/><path fill="#fbae17" d="M2014.1,761.9c-2.1-1.2-3.8-2.8-5.1-4.8l-23,0.1l0.1,11.2c0,3.2,2.7,5.9,5.9,5.8l22.2-0.1L2014.1,761.9z"/><path fill="#fbae17" d="M2028.2,736.8c2,1.1,3.7,2.8,5,4.7l20.7-0.1l-0.1-8.8c0-3.2-2.7-5.9-5.9-5.8l-19.8,0.1L2028.2,736.8z"/><path fill="#fbae17" d="M2008.6,742.2c1.2-2.1,2.8-3.8,4.8-5.1l-0.1-10.3l-21.6,0.1c-3.2,0-5.9,2.7-5.8,5.9l0.1,9.4L2008.6,742.2z"/><path fill="#fbae17" d="M2054,754.1l-0.1-10.6l-19.6,0.1c0.7,1.7,1.2,3.6,1.2,5.6c0,1.8-0.3,3.4-0.9,5L2054,754.1z"/><path fill="#fbae17" d="M2033.6,756.3c-1.2,2-2.8,3.8-4.7,5l0.1,0l0.1,12.7l19.2-0.1c3.2,0,5.9-2.7,5.8-5.9l-0.1-11.8L2033.6,756.3
				z"/><g><path fill="#fff" d="M1972.9,696.9l75.4-0.4c2.9,0,5.3-1.5,5.3-3.4l-0.1-12.7c0-1.9-2.4-3.3-5.3-3.3l-75.4,0.4
				c-2.9,0-5.3,1.5-5.3,3.4l0.1,12.7C1967.6,695.4,1970,696.9,1972.9,696.9z"/><path fill="#fff" d="M1879.1,697.4l75.4-0.4c2.9,0,5.3-1.5,5.3-3.4l-0.1-12.7c0-1.9-2.4-3.3-5.3-3.3L1879,678
				c-2.9,0-5.3,1.5-5.3,3.4l0.1,12.7C1873.8,696,1876.1,697.4,1879.1,697.4z"/><path fill="#fff" d="M1785.2,698l75.4-0.4c2.9,0,5.3-1.5,5.3-3.4l-0.1-12.7c0-1.9-2.4-3.3-5.3-3.3l-75.4,0.4
				c-2.9,0-5.3,1.5-5.3,3.4l0.1,12.7C1779.9,696.5,1782.3,698,1785.2,698z"/></g></g><g><linearGradient id="SVGID_19_" x1="-14215.73" x2="-13889.741" y1="717.45" y2="717.45" gradientTransform="matrix(-1 0 0 1 -13294.948 0)" gradientUnits="userSpaceOnUse"><stop offset="0" stop-color="#6443d7"/><stop offset="1" stop-color="#ac5df9"/></linearGradient><path fill="url(#SVGID_19_)" d="M896.7,849.5l-279.2-2c-12.6-0.1-22.8-10.3-22.7-23l0.1-23.5l0.2-47.9l0.7-145c0.1-12.6,10.3-22.8,23-22.7
			l279.2,2c12.6,0.1,22.8,10.3,22.7,23l-0.7,145l-0.2,47.9l-0.1,23.5C919.6,839.3,909.3,849.5,896.7,849.5z"/><path fill="#fbae17" d="M663.2,762.8l-0.1,11.3l-10.6-0.1l0.1-11.6c1.7,0.8,3.6,1.2,5.7,1.2C660,763.7,661.7,763.4,663.2,762.8z"/><path fill="#fbae17" d="M670.6,749.4c0,6.8-5.6,12.3-12.4,12.2c-6.8,0-12.3-5.6-12.2-12.4c0-6.8,5.6-12.3,12.4-12.2
				C665.2,737,670.7,742.6,670.6,749.4z"/><path fill="#fbae17" d="M653.3,735.8l0.1-9l10.6,0.1L664,736c-1.7-0.7-3.6-1.1-5.6-1.2C656.6,734.9,654.9,735.2,653.3,735.8z"/><path fill="#fbae17" d="M693.5,744.5l-0.1,10.6l-21.9-0.1c0.7-1.7,1.2-3.6,1.2-5.6c0-1.8-0.3-3.4-0.9-5L693.5,744.5z"/><path fill="#fbae17" d="M665.3,761.9c2.1-1.2,3.8-2.8,5.1-4.8l23,0.1l-0.1,11.2c0,3.2-2.7,5.9-5.9,5.8l-22.2-0.1L665.3,761.9z"/><path fill="#fbae17" d="M651.2,736.8c-2,1.1-3.7,2.8-5,4.7l-20.7-0.1l0.1-8.8c0-3.2,2.7-5.9,5.9-5.8l19.8,0.1L651.2,736.8z"/><path fill="#fbae17" d="M670.9,742.2c-1.2-2.1-2.8-3.8-4.8-5.1l0.1-10.3l21.6,0.1c3.2,0,5.9,2.7,5.8,5.9l-0.1,9.4L670.9,742.2z"/><path fill="#fbae17" d="M625.4,754.1l0.1-10.6l19.6,0.1c-0.7,1.7-1.2,3.6-1.2,5.6c0,1.8,0.3,3.4,0.9,5L625.4,754.1z"/><path fill="#fbae17" d="M645.8,756.3c1.2,2,2.8,3.8,4.7,5l-0.1,0l-0.1,12.7l-19.2-0.1c-3.2,0-5.9-2.7-5.8-5.9l0.1-11.8L645.8,756.3
				z"/><g><path fill="#fff" d="M706.5,696.9l-75.4-0.4c-2.9,0-5.3-1.5-5.3-3.4l0.1-12.7c0-1.9,2.4-3.3,5.3-3.3l75.4,0.4
				c2.9,0,5.3,1.5,5.3,3.4l-0.1,12.7C711.8,695.4,709.4,696.9,706.5,696.9z"/><path fill="#fff" d="M800.4,697.4l-75.4-0.4c-2.9,0-5.3-1.5-5.3-3.4l0.1-12.7c0-1.9,2.4-3.3,5.3-3.3l75.4,0.4
				c2.9,0,5.3,1.5,5.3,3.4l-0.1,12.7C805.7,696,803.3,697.4,800.4,697.4z"/><path fill="#fff" d="M894.2,698l-75.4-0.4c-2.9,0-5.3-1.5-5.3-3.4l0.1-12.7c0-1.9,2.4-3.3,5.3-3.3l75.4,0.4
				c2.9,0,5.3,1.5,5.3,3.4l-0.1,12.7C899.5,696.5,897.2,698,894.2,698z"/></g></g><linearGradient id="SVGID_20_" x1="-9341.146" x2="-9343.093" y1="836.78" y2="1102.901" gradientTransform="matrix(-1 0 0 1 -8239.095 0)" gradientUnits="userSpaceOnUse"><stop offset="0" stop-color="#3393eb"/><stop offset=".999" stop-color="#37bedf"/></linearGradient><path fill="url(#SVGID_20_)" d="M1051.1,865.4c0,0,41.9,9.5,64.6,9.8c22.6,0.3,42.8-1.8,42.8-1.8l0.6,8.7c0,0-74.9,22.5-99.7,10.3
		C1034.6,880.1,1051.1,865.4,1051.1,865.4z"/><g><path fill="#221f1f" d="M820,304.4c0,0-48.4,0.3-67.4,31.5c0,0-6.4,13.3-6.9,43.2c-0.5,27.2-0.1,793.6,0,963.6
			c0,26.9,19.5,49.9,46.1,53.9c8,1.2,17.4,2,28.3,2.2C883.5,1400.1,820,304.4,820,304.4z" opacity=".2"/><path fill="#2c325e" d="M1123.3,1358.4L820,1398.9c-25.3,0-45.8-20.5-45.8-45.8v-1003c0-25.3,20.5-45.8,45.8-45.8l303.3,74.6
			c25.3,0,45.8,20.5,45.8,45.8v887.9C1169.1,1337.9,1148.6,1358.4,1123.3,1358.4z"/><linearGradient id="SVGID_21_" x1="-9210.757" x2="-9210.757" y1="1495.792" y2="-41.085" gradientTransform="matrix(-1 0 0 1 -8239.095 0)" gradientUnits="userSpaceOnUse"><stop offset="0" stop-color="#d3d0ff"/><stop offset="1" stop-color="#f1f9fe"/></linearGradient><path fill="url(#SVGID_21_)" d="M793.1,349.8v979c0,12.6,10.2,22.7,22.7,22.7l311.7-40.5c12.6,0,22.7-10.2,22.7-22.7V424.4
			c0-11.8-9.6-21.5-21.5-21.5l-314.2-74.6C802.7,328.3,793.1,337.9,793.1,349.8z"/><ellipse cx="978.1" cy="354.9" fill="#fff" rx="7.4" ry="8.9" transform="rotate(-47.623 978.172 354.93)"/><defs><path id="SVGID_341_" d="M793.1,349.8v979c0,12.6,10.2,22.7,22.7,22.7l311.7-40.5c12.6,0,22.7-10.2,22.7-22.7V424.4
					c0-11.8-9.6-21.5-21.5-21.5l-314.2-74.6C802.7,328.3,793.1,337.9,793.1,349.8z"/></defs><clipPath id="SVGID_22_"><use overflow="visible" xlink:href="#SVGID_341_"/></clipPath><g clip-path="url(#SVGID_22_)"><path fill="#43457b" d="M930.1,641.7c2.8,6.6,6.6,12.7,11.5,17.9c1.6,1.7,3.2,3.5,4.9,6c2.2,3.1,9.9,16.4,13.7,16.3
						c2.6-0.1,9.8,7.1,11.1,4.9c1.3-2.2-12.8-22.7-12.5-25.2c1.5-12.7,13.6-3.7,7.4-37.1c-1.3-6.9,10.2-10,17.1-11.5
						c7.4-1.7,14.8,2.5,21.9,0.7c13.4-3.4,26.4-17.5,29.9-30.5c2.7-9.9,1.1-21.1-5-29.5c-6.1-8.3-16.7-13.3-26.9-12
						c-2.3,0.3-4.7,0.9-6.6,2.4c-1.5,1.2-2.6,2.8-3.7,4.4c-5.1,7.2-11.8,13.3-19.4,17.6c-9.5,5.4-20.3,8.2-30.4,12.4
						c-5.8,2.4-11.8,5.7-14.8,11.2c-3.9,7-4.3,21.3-3.2,30.9C925.7,629.2,927,634.3,930.1,641.7z"/><path fill="#f8ac9b" d="M1013.1,687.2c-3.4,0.9-7.2,1.3-10.9,1.4c-4.1,0.1-8.2-0.2-11.3-0.7c-3.9-0.6-10.1-3.1-13.4-5.4
							c-1.4-1-2.6-2-3.8-3.1c-1.7-1.5-3.1-3.1-4.5-4.7c-3.8-4.6-6.9-9.6-11.9-14.5l10.4,30.3l-7.9,29.5l46.5,0.4l2.5-12.3
							L1013.1,687.2L1013.1,687.2z"/><path fill="#f8ac9b" d="M1026.8,621.8c0,0,1.9,13.3,6.4,19.5c4.5,6.2,8.8,10.8,4.8,12.9c-4.1,2.2-15.6,5.3-15.6,5.3l-6.3-25.9
							L1026.8,621.8z"/><path fill="#f8ac9b" d="M1013.1,687.2c-3.4,0.9-7.2,1.3-10.9,1.4c-4.1,0.1-8.2-0.2-11.3-0.7c-3.9-0.6-10.1-3.1-13.4-5.4
							c-1.4-1-2.6-2-3.8-3.1l0,0c0,0,1.5,4.9,17.9,14.3c4.2,2.4,18.2,4.5,19.2,4.7L1013.1,687.2L1013.1,687.2z" opacity=".5"/><path fill="#f8ac9b" d="M1025.7,603.4c1-11-3.2-8.3-10.2-7.7c-6.5,0.6-15.5-1.2-21-1c-5.8,0.2-11.3,1-17,1.9
							c-9.8,1.6-11.9,11.5-12.1,17.8c0,0.1,0,0.2,0,0.3c-0.1,6.1,1.4,20.2,0.1,25.1c-1.3,5-9.7-15.7-18.2-15.9c-1.9,0-3.6,0-5.5,1
							c-3.6,1.9-5.9,6-5.6,10.3c0.3,5.8,4,10.7,8.2,14.5c4.2,3.7,9,6.6,13.1,10.5v0c5.1,4.8,8.1,9.9,11.9,14.5
							c1.3,1.6,2.8,3.2,4.5,4.7c1.1,1.1,2.4,2.1,3.8,3.1c3.3,2.3,9.5,4.7,13.4,5.4c3.1,0.5,7.1,0.8,11.3,0.7
							c3.7-0.1,7.5-0.5,10.9-1.4c2.7-0.7,5.1-1.7,6.9-3.1c2.3-1.7,3.9-3.7,5.3-5.8c4.5-7.4,4.2-17.3,4.8-27.3
							C1031,634.8,1024.3,619.6,1025.7,603.4z"/><path fill="#f8ac9b" d="M990,602.4c12.8-3.6,35-6.8,24.4-6.6c-6.5,0.6-14.3-1.2-19.8-1.1c-5.8,0.2-11.3,1-17,1.9
							c-9.8,1.6-11.9,11.5-12.1,17.8c0,0.1,0,0.2,0,0.3C968.4,609.3,977.5,606,990,602.4z" opacity=".5"/><path fill="#f8ac9b" d="M1163.9,865.8c3.4-3.3,8.5-3.8,13.2-4.1c7.6-0.5,15.3-1.1,22.9-1.6c3.2-0.2,7.1,0,8.5,2.8
					c1.1,2.4-0.3,5.3-2.4,6.9c-2.1,1.6-4.7,2.3-7.1,3.4c-2.4,1.1-4.7,3-5.1,5.6c-0.4,2.3,0.8,4.7,0,6.9c-0.5,1.3-1.7,2.3-2.5,3.5
					c-1.3,2.1-1.2,4.8-2.5,6.9c-1.4,2.2-4.1,3-6.5,3.7c-3.4,1-6.9,2-10.3,3c-5.2,1.5-11.7,2.7-15.2-1.5c-1.6-2-2.1-4.6-2.4-7.2
					c-0.5-5.2-1-11.5,1.6-16C1158.1,874.4,1160.8,868.8,1163.9,865.8z"/><path fill="#f8ac9b" d="M1163.9,865.8c3.4-3.3,8.5-3.8,13.2-4.1c7.6-0.5,15.3-1.1,22.9-1.6c3.2-0.2,7.1,0,8.5,2.8
					c1.1,2.4-0.3,5.3-2.4,6.9c-2.1,1.6-4.7,2.3-7.1,3.4c-2.4,1.1-4.7,3-5.1,5.6c-0.4,2.3,0.8,4.7,0,6.9c-0.5,1.3-1.7,2.3-2.5,3.5
					c-1.3,2.1-1.2,4.8-2.5,6.9c-1.4,2.2-4.1,3-6.5,3.7c-3.4,1-6.9,2-10.3,3c-5.2,1.5-11.7,2.7-15.2-1.5c-1.6-2-2.1-4.6-2.4-7.2
					c-0.5-5.2-1-11.5,1.6-16C1158.1,874.4,1160.8,868.8,1163.9,865.8z" opacity=".5"/><path fill="#f8ac9b" d="M1167.7,875.5c3.4-3.3,8.5-3.8,13.2-4.1c7.6-0.5,15.3-1.1,22.9-1.6c3.2-0.2,7.1,0,8.5,2.8
					c1.1,2.4-0.3,5.3-2.4,6.9c-2.1,1.6-4.7,2.3-7.1,3.4c-2.4,1.1-4.7,3-5.1,5.6c-0.4,2.3,0.8,4.7,0,6.9c-0.5,1.3-1.7,2.3-2.5,3.5
					c-1.3,2.1-1.2,4.8-2.5,6.9c-1.4,2.2-4.1,3-6.5,3.7c-3.4,1-6.9,2-10.3,3c-5.2,1.5-11.7,2.7-15.2-1.5c-1.6-2-2.1-4.6-2.4-7.2
					c-0.5-5.2-1-11.5,1.6-16C1161.9,884.1,1164.6,878.5,1167.7,875.5z"/><linearGradient id="SVGID_23_" x1="12408.354" x2="12431.554" y1="1018.643" y2="1311.303" gradientTransform="translate(-11441.914)" gradientUnits="userSpaceOnUse"><stop offset="0" stop-color="#3a3c63"/><stop offset="1" stop-color="#40447b"/></linearGradient><path fill="url(#SVGID_23_)" d="M914.5,992.6c0,0-9.4,45.9,22.6,124.9c32,79-1.1,333.5-1.1,333.5h27.7c0,0,91.2-206.3,78.2-296.3
					C1028.8,1064.7,942,970.5,914.5,992.6z"/><polygon fill="#f8ac9b" points="1109.7 1464 1108.9 1452.3 1134.6 1452.3 1135.2 1464"/><linearGradient id="SVGID_24_" x1="12599.128" x2="12597.338" y1="1531.376" y2="1458.887" gradientTransform="translate(-11441.914)" gradientUnits="userSpaceOnUse"><stop offset="0" stop-color="#3a3c63"/><stop offset="1" stop-color="#40447b"/></linearGradient><path fill="url(#SVGID_24_)" d="M1144.6,1464c0,0,4.1,8.5,8,11.4c3.9,3,49.5,9.2,53.1,15.7s-2.4,10-2.9,10s-95.8,0.9-96.6,0
						c-0.9-0.9,0.3-37.1,0.3-37.1H1144.6z"/><polygon fill="#f8ac9b" points="936.6 1462.7 938.2 1451 961.5 1451 959.3 1462.7"/><linearGradient id="SVGID_25_" x1="12426.034" x2="12424.244" y1="1530.071" y2="1457.582" gradientTransform="translate(-11441.914)" gradientUnits="userSpaceOnUse"><stop offset="0" stop-color="#3a3c63"/><stop offset="1" stop-color="#40447b"/></linearGradient><path fill="url(#SVGID_25_)" d="M971.5,1462.7c0,0,4.1,8.5,8,11.4c3.9,3,49.5,9.2,53.1,15.7c3.6,6.5-2.4,10-2.9,10
						c-0.5,0-95.8,0.9-96.6,0s0.3-37.1,0.3-37.1H971.5z"/><path fill="#221f1f" d="M960.4,1097.2C960.4,1097.2,960.4,1097.2,960.4,1097.2c0,0,25.5,62.8,41.6,80.9
					c16.1,18.1,31.7,62.2,31.7,62.2s3.1-13,6.4-28.9c-5.8-13-11.8-23.3-17.7-29.5C1003.7,1162.5,980.5,1130.4,960.4,1097.2z" opacity=".2"/><linearGradient id="SVGID_26_" x1="12567.988" x2="12478.963" y1="995.943" y2="1198.676" gradientTransform="translate(-11441.914)" gradientUnits="userSpaceOnUse"><stop offset="0" stop-color="#3a3c63"/><stop offset="1" stop-color="#40447b"/></linearGradient><path fill="url(#SVGID_26_)" d="M1122.6,1192.7c-6-69.7-66.3-196.2-66.3-196.2s-74.5-27.6-141.9-3.9c2.2,23.7,21.9,65,45.9,104.6
					c20.1,33.2,43.3,65.2,62,84.8c5.9,6.2,11.9,16.5,17.7,29.5c34.4,76.8,62.6,241.5,62.6,241.5l36.2-1
					C1138.9,1452,1128.6,1262.4,1122.6,1192.7z"/><linearGradient id="SVGID_27_" x1="-9341.146" x2="-9343.093" y1="836.78" y2="1102.901" gradientTransform="matrix(-1 0 0 1 -8239.095 0)" gradientUnits="userSpaceOnUse"><stop offset="0" stop-color="#ffb682"/><stop offset="1" stop-color="#ee5379"/></linearGradient><path fill="url(#SVGID_27_)" d="M1051.1,865.4c0,0,41.9,9.5,64.6,9.8c22.6,0.3,42.8-1.8,42.8-1.8l0.6,8.7c0,0-74.9,22.5-99.7,10.3
					C1034.6,880.1,1051.1,865.4,1051.1,865.4z"/><linearGradient id="SVGID_28_" x1="-9125.914" x2="-9516.828" y1="859.117" y2="869.726" gradientTransform="matrix(-1 0 0 1 -8239.095 0)" gradientUnits="userSpaceOnUse"><stop offset="0" stop-color="#3393eb"/><stop offset=".999" stop-color="#37bedf"/></linearGradient><path fill="url(#SVGID_28_)" d="M908.9,798.5c12.2-66.8,58.7-108.7,58.7-108.7s22.8,9.4,41.3,26.9c13.2,12.4,39.6,89.3,53.8,163.8
					c28.9,3.5,59.7,8.6,96.4,1.7l5.1,32.2c-31.8,16.3-66.1,17.7-101.4,18.2c0.8,11.4,1,28,0.4,38.1c-4.9,86.3-124,66.2-142.8,41.3
					C900.1,985,896.7,865.3,908.9,798.5z"/><path fill="#f8ac9b" d="M1064.9,932.2c0,0-41.8-1.8-62.6-16.4c-20.8-14.7-44.5-102.9-47.3-112.4c-4-13.3-5.7-61.1-5.7-61.1
					s-9.1,40.5-9,65.2c0.5,90.2,39.2,111.1,53.3,116.5C1022.4,935,1064.9,932.2,1064.9,932.2z" opacity=".5"/></g><g><path fill="#43457b" d="M930.1,641.7c2.8,6.6,6.6,12.7,11.5,17.9c1.6,1.7,3.2,3.5,4.9,6c2.2,3.1,9.9,16.4,13.7,16.3
				c2.6-0.1,9.8,7.1,11.1,4.9c1.3-2.2-12.8-22.7-12.5-25.2c1.5-12.7,13.6-3.7,7.4-37.1c-1.3-6.9,10.2-10,17.1-11.5
				c7.4-1.7,14.8,2.5,21.9,0.7c13.4-3.4,26.4-17.5,29.9-30.5c2.7-9.9,1.1-21.1-5-29.5c-6.1-8.3-16.7-13.3-26.9-12
				c-2.3,0.3-4.7,0.9-6.6,2.4c-1.5,1.2-2.6,2.8-3.7,4.4c-5.1,7.2-11.8,13.3-19.4,17.6c-9.5,5.4-20.3,8.2-30.4,12.4
				c-5.8,2.4-11.8,5.7-14.8,11.2c-3.9,7-4.3,21.3-3.2,30.9C925.7,629.2,927,634.3,930.1,641.7z"/><path fill="#f8ac9b" d="M1013.1,687.2c-3.4,0.9-7.2,1.3-10.9,1.4c-4.1,0.1-8.2-0.2-11.3-0.7c-3.9-0.6-10.1-3.1-13.4-5.4
					c-1.4-1-2.6-2-3.8-3.1c-1.7-1.5-3.1-3.1-4.5-4.7c-3.8-4.6-6.9-9.6-11.9-14.5l10.4,30.3l-7.9,29.5l46.5,0.4l2.5-12.3
					L1013.1,687.2L1013.1,687.2z"/><path fill="#f8ac9b" d="M1026.8,621.8c0,0,1.9,13.3,6.4,19.5c4.5,6.2,8.8,10.8,4.8,12.9c-4.1,2.2-15.6,5.3-15.6,5.3l-6.3-25.9
					L1026.8,621.8z"/><path fill="#f8ac9b" d="M1013.1,687.2c-3.4,0.9-7.2,1.3-10.9,1.4c-4.1,0.1-8.2-0.2-11.3-0.7c-3.9-0.6-10.1-3.1-13.4-5.4
					c-1.4-1-2.6-2-3.8-3.1l0,0c0,0,1.5,4.9,17.9,14.3c4.2,2.4,18.2,4.5,19.2,4.7L1013.1,687.2L1013.1,687.2z" opacity=".5"/><path fill="#f8ac9b" d="M1025.7,603.4c1-11-3.2-8.3-10.2-7.7c-6.5,0.6-15.5-1.2-21-1c-5.8,0.2-11.3,1-17,1.9
					c-9.8,1.6-11.9,11.5-12.1,17.8c0,0.1,0,0.2,0,0.3c-0.1,6.1,1.4,20.2,0.1,25.1c-1.3,5-9.7-15.7-18.2-15.9c-1.9,0-3.6,0-5.5,1
					c-3.6,1.9-5.9,6-5.6,10.3c0.3,5.8,4,10.7,8.2,14.5c4.2,3.7,9,6.6,13.1,10.5v0c5.1,4.8,8.1,9.9,11.9,14.5
					c1.3,1.6,2.8,3.2,4.5,4.7c1.1,1.1,2.4,2.1,3.8,3.1c3.3,2.3,9.5,4.7,13.4,5.4c3.1,0.5,7.1,0.8,11.3,0.7c3.7-0.1,7.5-0.5,10.9-1.4
					c2.7-0.7,5.1-1.7,6.9-3.1c2.3-1.7,3.9-3.7,5.3-5.8c4.5-7.4,4.2-17.3,4.8-27.3C1031,634.8,1024.3,619.6,1025.7,603.4z"/><path fill="#f8ac9b" d="M990,602.4c12.8-3.6,35-6.8,24.4-6.6c-6.5,0.6-14.3-1.2-19.8-1.1c-5.8,0.2-11.3,1-17,1.9
					c-9.8,1.6-11.9,11.5-12.1,17.8c0,0.1,0,0.2,0,0.3C968.4,609.3,977.5,606,990,602.4z" opacity=".5"/></g><path fill="none" d="M793.1,349.8v979c0,12.6,10.2,22.7,22.7,22.7l311.7-40.5c12.6,0,22.7-10.2,22.7-22.7V424.4
			c0-11.8-9.6-21.5-21.5-21.5l-314.2-74.6C802.7,328.3,793.1,337.9,793.1,349.8z"/></g><g><linearGradient id="SVGID_29_" x1="1572.022" x2="1570.075" y1="836.78" y2="1102.901" gradientUnits="userSpaceOnUse"><stop offset="0" stop-color="#3393eb"/><stop offset=".999" stop-color="#37bedf"/></linearGradient><path fill="url(#SVGID_29_)" d="M1623,865.4c0,0-41.9,9.5-64.6,9.8c-22.6,0.3-42.8-1.8-42.8-1.8l-0.6,8.7c0,0,74.9,22.5,99.7,10.3
			C1639.5,880.1,1623,865.4,1623,865.4z"/><path fill="#221f1f" d="M1854.1,304.4c0,0,48.4,0.3,67.4,31.5c0,0,6.4,13.3,6.9,43.2c0.5,27.2,0.1,793.6,0,963.6
				c0,26.9-19.5,49.9-46.1,53.9c-8,1.2-17.4,2-28.3,2.2C1790.6,1400.1,1854.1,304.4,1854.1,304.4z" opacity=".2"/><path fill="#2c325e" d="M1550.8,1358.4l303.3,40.5c25.3,0,45.8-20.5,45.8-45.8v-1003c0-25.3-20.5-45.8-45.8-45.8L1550.8,379
				c-25.3,0-45.8,20.5-45.8,45.8v887.9C1505,1337.9,1525.5,1358.4,1550.8,1358.4z"/><linearGradient id="SVGID_30_" x1="1702.411" x2="1702.411" y1="1495.792" y2="-41.085" gradientUnits="userSpaceOnUse"><stop offset="0" stop-color="#d3d0ff"/><stop offset="1" stop-color="#f1f9fe"/></linearGradient><path fill="url(#SVGID_30_)" d="M1881,349.8v979c0,12.6-10.2,22.7-22.7,22.7l-311.7-40.5c-12.6,0-22.7-10.2-22.7-22.7V424.4
				c0-11.8,9.6-21.5,21.5-21.5l314.2-74.6C1871.4,328.3,1881,337.9,1881,349.8z"/><ellipse cx="1696" cy="354.9" fill="#fff" rx="8.9" ry="7.4" transform="rotate(-42.379 1695.861 354.977)"/><defs><path id="SVGID_351_" d="M1881,349.8v979c0,12.6-10.2,22.7-22.7,22.7l-311.7-40.5c-12.6,0-22.7-10.2-22.7-22.7V424.4
						c0-11.8,9.6-21.5,21.5-21.5l314.2-74.6C1871.4,328.3,1881,337.9,1881,349.8z"/></defs><clipPath id="SVGID_31_"><use overflow="visible" xlink:href="#SVGID_351_"/></clipPath><g clip-path="url(#SVGID_31_)"><path fill="#43457b" d="M1743.9,641.7c-2.8,6.6-6.6,12.7-11.5,17.9c-1.6,1.7-3.2,3.5-4.9,6c-2.2,3.1-9.9,16.4-13.7,16.3
							c-2.6-0.1-9.8,7.1-11.1,4.9c-1.3-2.2,12.8-22.7,12.5-25.2c-1.5-12.7-13.6-3.7-7.4-37.1c1.3-6.9-10.2-10-17.1-11.5
							c-7.4-1.7-14.8,2.5-21.9,0.7c-13.4-3.4-26.4-17.5-29.9-30.5c-2.7-9.9-1.1-21.1,5-29.5c6.1-8.3,16.7-13.3,26.9-12
							c2.3,0.3,4.7,0.9,6.6,2.4c1.5,1.2,2.6,2.8,3.7,4.4c5.1,7.2,11.8,13.3,19.4,17.6c9.5,5.4,20.3,8.2,30.4,12.4
							c5.8,2.4,11.8,5.7,14.8,11.2c3.9,7,4.3,21.3,3.2,30.9C1748.4,629.2,1747.1,634.3,1743.9,641.7z"/><path fill="#f8ac9b" d="M1661,687.2c3.4,0.9,7.2,1.3,10.9,1.4c4.1,0.1,8.2-0.2,11.3-0.7c3.9-0.6,10.1-3.1,13.4-5.4
								c1.4-1,2.6-2,3.8-3.1c1.7-1.5,3.1-3.1,4.5-4.7c3.8-4.6,6.9-9.6,11.9-14.5l-10.4,30.3l7.9,29.5l-46.5,0.4l-2.5-12.3
								L1661,687.2L1661,687.2z"/><path fill="#f8ac9b" d="M1647.3,621.8c0,0-1.9,13.3-6.4,19.5c-4.5,6.2-8.8,10.8-4.8,12.9c4.1,2.2,15.6,5.3,15.6,5.3l6.3-25.9
								L1647.3,621.8z"/><path fill="#f8ac9b" d="M1661,687.2c3.4,0.9,7.2,1.3,10.9,1.4c4.1,0.1,8.2-0.2,11.3-0.7c3.9-0.6,10.1-3.1,13.4-5.4
								c1.4-1,2.6-2,3.8-3.1l0,0c0,0-1.5,4.9-17.9,14.3c-4.2,2.4-18.2,4.5-19.2,4.7L1661,687.2L1661,687.2z" opacity=".5"/><path fill="#f8ac9b" d="M1648.3,603.4c-1-11,3.2-8.3,10.2-7.7c6.5,0.6,15.5-1.2,21-1c5.8,0.2,11.3,1,17,1.9
								c9.8,1.6,11.9,11.5,12.1,17.8c0,0.1,0,0.2,0,0.3c0.1,6.1-1.4,20.2-0.1,25.1c1.3,5,9.7-15.7,18.2-15.9c1.9,0,3.6,0,5.5,1
								c3.6,1.9,5.9,6,5.6,10.3c-0.3,5.8-4,10.7-8.2,14.5c-4.2,3.7-9,6.6-13.1,10.5v0c-5.1,4.8-8.1,9.9-11.9,14.5
								c-1.3,1.6-2.8,3.2-4.5,4.7c-1.1,1.1-2.4,2.1-3.8,3.1c-3.3,2.3-9.5,4.7-13.4,5.4c-3.1,0.5-7.1,0.8-11.3,0.7
								c-3.7-0.1-7.5-0.5-10.9-1.4c-2.7-0.7-5.1-1.7-6.9-3.1c-2.3-1.7-3.9-3.7-5.3-5.8c-4.5-7.4-4.2-17.3-4.8-27.3
								C1643.1,634.8,1649.7,619.6,1648.3,603.4z"/><path fill="#f8ac9b" d="M1684,602.4c-12.8-3.6-35-6.8-24.4-6.6c6.5,0.6,14.3-1.2,19.8-1.1c5.8,0.2,11.3,1,17,1.9
								c9.8,1.6,11.9,11.5,12.1,17.8c0,0.1,0,0.2,0,0.3C1705.7,609.3,1696.5,606,1684,602.4z" opacity=".5"/><path fill="#f8ac9b" d="M1510.2,865.8c-3.4-3.3-8.5-3.8-13.2-4.1c-7.6-0.5-15.3-1.1-22.9-1.6c-3.2-0.2-7.1,0-8.5,2.8
						c-1.1,2.4,0.3,5.3,2.4,6.9c2.1,1.6,4.7,2.3,7.1,3.4c2.4,1.1,4.7,3,5.1,5.6c0.4,2.3-0.8,4.7,0,6.9c0.5,1.3,1.7,2.3,2.5,3.5
						c1.3,2.1,1.2,4.8,2.5,6.9c1.4,2.2,4.1,3,6.5,3.7c3.4,1,6.9,2,10.3,3c5.2,1.5,11.7,2.7,15.2-1.5c1.6-2,2.1-4.6,2.4-7.2
						c0.5-5.2,1-11.5-1.6-16C1515.9,874.4,1513.3,868.8,1510.2,865.8z"/><path fill="#f8ac9b" d="M1510.2,865.8c-3.4-3.3-8.5-3.8-13.2-4.1c-7.6-0.5-15.3-1.1-22.9-1.6c-3.2-0.2-7.1,0-8.5,2.8
						c-1.1,2.4,0.3,5.3,2.4,6.9c2.1,1.6,4.7,2.3,7.1,3.4c2.4,1.1,4.7,3,5.1,5.6c0.4,2.3-0.8,4.7,0,6.9c0.5,1.3,1.7,2.3,2.5,3.5
						c1.3,2.1,1.2,4.8,2.5,6.9c1.4,2.2,4.1,3,6.5,3.7c3.4,1,6.9,2,10.3,3c5.2,1.5,11.7,2.7,15.2-1.5c1.6-2,2.1-4.6,2.4-7.2
						c0.5-5.2,1-11.5-1.6-16C1515.9,874.4,1513.3,868.8,1510.2,865.8z" opacity=".5"/><path fill="#f8ac9b" d="M1506.4,875.5c-3.4-3.3-8.5-3.8-13.2-4.1c-7.6-0.5-15.3-1.1-22.9-1.6c-3.2-0.2-7.1,0-8.5,2.8
						c-1.1,2.4,0.3,5.3,2.4,6.9c2.1,1.6,4.7,2.3,7.1,3.4c2.4,1.1,4.7,3,5.1,5.6c0.4,2.3-0.8,4.7,0,6.9c0.5,1.3,1.7,2.3,2.5,3.5
						c1.3,2.1,1.2,4.8,2.5,6.9c1.4,2.2,4.1,3,6.5,3.7c3.4,1,6.9,2,10.3,3c5.2,1.5,11.7,2.7,15.2-1.5c1.6-2,2.1-4.6,2.4-7.2
						c0.5-5.2,1-11.5-1.6-16C1512.1,884.1,1509.5,878.5,1506.4,875.5z"/><linearGradient id="SVGID_32_" x1="1495.188" x2="1518.386" y1="1018.643" y2="1311.303" gradientTransform="matrix(-1 0 0 1 3202.82 0)" gradientUnits="userSpaceOnUse"><stop offset="0" stop-color="#3a3c63"/><stop offset="1" stop-color="#40447b"/></linearGradient><path fill="url(#SVGID_32_)" d="M1759.6,992.6c0,0,9.4,45.9-22.6,124.9c-32,79,1.1,333.5,1.1,333.5h-27.7c0,0-91.2-206.3-78.2-296.3
						C1645.2,1064.7,1732,970.5,1759.6,992.6z"/><polygon fill="#f8ac9b" points="1564.3 1464 1565.2 1452.3 1539.5 1452.3 1538.8 1464"/><linearGradient id="SVGID_33_" x1="1685.961" x2="1684.171" y1="1531.376" y2="1458.887" gradientTransform="matrix(-1 0 0 1 3202.82 0)" gradientUnits="userSpaceOnUse"><stop offset="0" stop-color="#3a3c63"/><stop offset="1" stop-color="#40447b"/></linearGradient><path fill="url(#SVGID_33_)" d="M1529.5,1464c0,0-4.1,8.5-8,11.4c-3.9,3-49.5,9.2-53.1,15.7c-3.6,6.5,2.4,10,2.9,10
							c0.5,0,95.8,0.9,96.6,0c0.9-0.9-0.3-37.1-0.3-37.1H1529.5z"/><polygon fill="#f8ac9b" points="1737.4 1462.7 1735.9 1451 1712.6 1451 1714.8 1462.7"/><linearGradient id="SVGID_34_" x1="1512.866" x2="1511.076" y1="1530.071" y2="1457.582" gradientTransform="matrix(-1 0 0 1 3202.82 0)" gradientUnits="userSpaceOnUse"><stop offset="0" stop-color="#3a3c63"/><stop offset="1" stop-color="#40447b"/></linearGradient><path fill="url(#SVGID_34_)" d="M1702.6,1462.7c0,0-4.1,8.5-8,11.4c-3.9,3-49.5,9.2-53.1,15.7c-3.6,6.5,2.4,10,2.9,10s95.8,0.9,96.6,0
							c0.9-0.9-0.3-37.1-0.3-37.1H1702.6z"/><path fill="#221f1f" d="M1713.7,1097.2C1713.7,1097.2,1713.7,1097.2,1713.7,1097.2c0,0-25.5,62.8-41.6,80.9
						c-16.1,18.1-31.7,62.2-31.7,62.2s-3.1-13-6.4-28.9c5.8-13,11.8-23.3,17.7-29.5C1670.4,1162.5,1693.6,1130.4,1713.7,1097.2z" opacity=".2"/><linearGradient id="SVGID_35_" x1="1654.821" x2="1565.795" y1="995.943" y2="1198.676" gradientTransform="matrix(-1 0 0 1 3202.82 0)" gradientUnits="userSpaceOnUse"><stop offset="0" stop-color="#3a3c63"/><stop offset="1" stop-color="#40447b"/></linearGradient><path fill="url(#SVGID_35_)" d="M1551.4,1192.7c6-69.7,66.3-196.2,66.3-196.2s74.5-27.6,141.9-3.9c-2.2,23.7-21.9,65-45.9,104.6
						c-20.1,33.2-43.3,65.2-62,84.8c-5.9,6.2-11.9,16.5-17.7,29.5c-34.4,76.8-62.6,241.5-62.6,241.5l-36.2-1
						C1535.2,1452,1545.4,1262.4,1551.4,1192.7z"/><linearGradient id="SVGID_36_" x1="1572.022" x2="1570.075" y1="836.78" y2="1102.901" gradientUnits="userSpaceOnUse"><stop offset="0" stop-color="#6443d7"/><stop offset="1" stop-color="#ac5df9"/></linearGradient><path fill="url(#SVGID_36_)" d="M1623,865.4c0,0-41.9,9.5-64.6,9.8c-22.6,0.3-42.8-1.8-42.8-1.8l-0.6,8.7c0,0,74.9,22.5,99.7,10.3
						C1639.5,880.1,1623,865.4,1623,865.4z"/><linearGradient id="SVGID_37_" x1="1787.254" x2="1396.34" y1="859.117" y2="869.726" gradientUnits="userSpaceOnUse"><stop offset="0" stop-color="#3393eb"/><stop offset=".999" stop-color="#37bedf"/></linearGradient><path fill="url(#SVGID_37_)" d="M1765.2,798.5c-12.2-66.8-58.7-108.7-58.7-108.7s-22.8,9.4-41.3,26.9c-13.2,12.4-39.6,89.3-53.8,163.8
						c-28.9,3.5-59.7,8.6-96.4,1.7l-5.1,32.2c31.8,16.3,66.1,17.7,101.4,18.2c-0.8,11.4-1,28-0.4,38.1c4.9,86.3,124,66.2,142.8,41.3
						C1774,985,1777.4,865.3,1765.2,798.5z"/><path fill="#f8ac9b" d="M1609.1,932.2c0,0,41.8-1.8,62.6-16.4c20.8-14.7,44.5-102.9,47.3-112.4c4-13.3,5.7-61.1,5.7-61.1
						s9.1,40.5,9,65.2c-0.5,90.2-39.2,111.1-53.3,116.5C1651.7,935,1609.1,932.2,1609.1,932.2z" opacity=".5"/></g><g><path fill="#43457b" d="M1743.9,641.7c-2.8,6.6-6.6,12.7-11.5,17.9c-1.6,1.7-3.2,3.5-4.9,6c-2.2,3.1-9.9,16.4-13.7,16.3
					c-2.6-0.1-9.8,7.1-11.1,4.9c-1.3-2.2,12.8-22.7,12.5-25.2c-1.5-12.7-13.6-3.7-7.4-37.1c1.3-6.9-10.2-10-17.1-11.5
					c-7.4-1.7-14.8,2.5-21.9,0.7c-13.4-3.4-26.4-17.5-29.9-30.5c-2.7-9.9-1.1-21.1,5-29.5c6.1-8.3,16.7-13.3,26.9-12
					c2.3,0.3,4.7,0.9,6.6,2.4c1.5,1.2,2.6,2.8,3.7,4.4c5.1,7.2,11.8,13.3,19.4,17.6c9.5,5.4,20.3,8.2,30.4,12.4
					c5.8,2.4,11.8,5.7,14.8,11.2c3.9,7,4.3,21.3,3.2,30.9C1748.4,629.2,1747.1,634.3,1743.9,641.7z"/><path fill="#f8ac9b" d="M1661,687.2c3.4,0.9,7.2,1.3,10.9,1.4c4.1,0.1,8.2-0.2,11.3-0.7c3.9-0.6,10.1-3.1,13.4-5.4
						c1.4-1,2.6-2,3.8-3.1c1.7-1.5,3.1-3.1,4.5-4.7c3.8-4.6,6.9-9.6,11.9-14.5l-10.4,30.3l7.9,29.5l-46.5,0.4l-2.5-12.3L1661,687.2
						L1661,687.2z"/><path fill="#f8ac9b" d="M1647.3,621.8c0,0-1.9,13.3-6.4,19.5c-4.5,6.2-8.8,10.8-4.8,12.9c4.1,2.2,15.6,5.3,15.6,5.3l6.3-25.9
						L1647.3,621.8z"/><path fill="#f8ac9b" d="M1661,687.2c3.4,0.9,7.2,1.3,10.9,1.4c4.1,0.1,8.2-0.2,11.3-0.7c3.9-0.6,10.1-3.1,13.4-5.4
						c1.4-1,2.6-2,3.8-3.1l0,0c0,0-1.5,4.9-17.9,14.3c-4.2,2.4-18.2,4.5-19.2,4.7L1661,687.2L1661,687.2z" opacity=".5"/><path fill="#f8ac9b" d="M1648.3,603.4c-1-11,3.2-8.3,10.2-7.7c6.5,0.6,15.5-1.2,21-1c5.8,0.2,11.3,1,17,1.9
						c9.8,1.6,11.9,11.5,12.1,17.8c0,0.1,0,0.2,0,0.3c0.1,6.1-1.4,20.2-0.1,25.1c1.3,5,9.7-15.7,18.2-15.9c1.9,0,3.6,0,5.5,1
						c3.6,1.9,5.9,6,5.6,10.3c-0.3,5.8-4,10.7-8.2,14.5c-4.2,3.7-9,6.6-13.1,10.5v0c-5.1,4.8-8.1,9.9-11.9,14.5
						c-1.3,1.6-2.8,3.2-4.5,4.7c-1.1,1.1-2.4,2.1-3.8,3.1c-3.3,2.3-9.5,4.7-13.4,5.4c-3.1,0.5-7.1,0.8-11.3,0.7
						c-3.7-0.1-7.5-0.5-10.9-1.4c-2.7-0.7-5.1-1.7-6.9-3.1c-2.3-1.7-3.9-3.7-5.3-5.8c-4.5-7.4-4.2-17.3-4.8-27.3
						C1643.1,634.8,1649.7,619.6,1648.3,603.4z"/><path fill="#f8ac9b" d="M1684,602.4c-12.8-3.6-35-6.8-24.4-6.6c6.5,0.6,14.3-1.2,19.8-1.1c5.8,0.2,11.3,1,17,1.9
						c9.8,1.6,11.9,11.5,12.1,17.8c0,0.1,0,0.2,0,0.3C1705.7,609.3,1696.5,606,1684,602.4z" opacity=".5"/></g><path fill="none" d="M1881,349.8v979c0,12.6-10.2,22.7-22.7,22.7l-311.7-40.5c-12.6,0-22.7-10.2-22.7-22.7V424.4
				c0-11.8,9.6-21.5,21.5-21.5l314.2-74.6C1871.4,328.3,1881,337.9,1881,349.8z"/><g><linearGradient id="SVGID_38_" x1="-583.383" x2="-788.671" y1="433.54" y2="228.251" gradientTransform="rotate(36.927 -434.31 3617.85)" gradientUnits="userSpaceOnUse"><stop offset="0" stop-color="#a2ed94"/><stop offset="1" stop-color="#69c7b3"/></linearGradient><polygon fill="url(#SVGID_38_)" points="1577.3 951.9 1101.8 952.9 1101.3 726.2 1576.7 725.2"/><path fill="#fff" d="M1247.6,839c0-45.5,21-84.6,51.1-102.1l-147.5,0.3c0,0.2,0,0.4,0,0.6c0.1,22.5-17.2,40.8-38.6,40.9
				c-0.4,0-0.7,0-1.1,0l0.3,121.6c0.4,0,0.7,0,1.1,0c21.4-0.1,38.7,18.2,38.8,40.7c0,0.2,0,0.4,0,0.6l147.3-0.3
				C1268.7,923.9,1247.6,884.6,1247.6,839z"/><path fill="#fff" d="M1566.6,777.8c-0.4,0-0.7,0-1.1,0c-21.4,0.1-38.7-18.2-38.8-40.7c0-0.2,0-0.4,0-0.6l-157.5,0.3
				c30.3,17.4,51.4,56.6,51.4,102.2c0,45.5-21,84.6-51.1,102.1l157.7-0.3c0-0.2,0-0.4,0-0.6c-0.1-22.5,17.2-40.8,38.6-40.9
				c0.4,0,0.7,0,1.1,0L1566.6,777.8z"/><path fill="#fff" d="M1420.7,839c0-45.6-21.1-84.8-51.4-102.2l-70.6,0.2c-30.1,17.5-51.1,56.6-51.1,102.1
				c0,45.6,21.1,84.8,51.4,102.2l70.6-0.2C1399.7,923.6,1420.7,884.5,1420.7,839z"/><linearGradient id="SVGID_39_" x1="1247.595" x2="1420.724" y1="839.028" y2="839.028" gradientUnits="userSpaceOnUse"><stop offset="0" stop-color="#a2ed94"/><stop offset="1" stop-color="#69c7b3"/></linearGradient><path fill="url(#SVGID_39_)" d="M1420.7,839c0-45.6-21.1-84.8-51.4-102.2l-70.6,0.2c-30.1,17.5-51.1,56.6-51.1,102.1
				c0,45.6,21.1,84.8,51.4,102.2l70.6-0.2C1399.7,923.6,1420.7,884.5,1420.7,839z"/><text fill="#fff" font-family="TimesNewRomanPS-BoldMT" font-size="171.602" transform="matrix(.9991 -.04208 .04208 .9991 1289.403 885.53)">$</text></g><path fill="#f8ac9b" d="M1506.4,875.5c-3.4-3.3-8.5-3.8-13.2-4.1c-7.6-0.5-15.3-1.1-22.9-1.6c-3.2-0.2-7.1,0-8.5,2.8
			c-1.1,2.4,0.3,5.3,2.4,6.9c2.1,1.6,4.7,2.3,7.1,3.4c2.4,1.1,4.7,3,5.1,5.6c0.4,2.3-0.8,4.7,0,6.9c0.5,1.3,1.7,2.3,2.5,3.5
			c1.3,2.1,1.2,4.8,2.5,6.9c1.4,2.2,4.1,3,6.5,3.7c3.4,1,6.9,2,10.3,3c5.2,1.5,11.7,2.7,15.2-1.5c1.6-2,2.1-4.6,2.4-7.2
			c0.5-5.2,1-11.5-1.6-16C1512.1,884.1,1509.5,878.5,1506.4,875.5z"/><linearGradient id="SVGID_40_" x1="1787.254" x2="1396.34" y1="859.117" y2="869.726" gradientUnits="userSpaceOnUse"><stop offset="0" stop-color="#6443d7"/><stop offset="1" stop-color="#ac5df9"/></linearGradient><path fill="url(#SVGID_40_)" d="M1765.2,798.5c-12.2-66.8-58.7-108.7-58.7-108.7s-22.8,9.4-41.3,26.9c-13.2,12.4-39.6,89.3-53.8,163.8
			c-28.9,3.5-59.7,8.6-96.4,1.7l-5.1,32.2c31.8,16.3,66.1,17.7,101.4,18.2c-0.8,11.4-1,28-0.4,38.1c4.9,86.3,124,66.2,142.8,41.3
			C1774,985,1777.4,865.3,1765.2,798.5z"/><path fill="#d1d3d4" d="M1609.1,932.2c0,0,41.8-1.8,62.6-16.4c20.8-14.7,44.5-102.9,47.3-112.4c4-13.3,5.7-61.1,5.7-61.1
			s9.1,40.5,9,65.2c-0.5,90.2-39.2,111.1-53.3,116.5C1651.7,935,1609.1,932.2,1609.1,932.2z" opacity=".5"/></g><path fill="#f8ac9b" d="M1167.7,875.5c3.4-3.3,8.5-3.8,13.2-4.1c7.6-0.5,15.3-1.1,22.9-1.6c3.2-0.2,7.1,0,8.5,2.8
		c1.1,2.4-0.3,5.3-2.4,6.9c-2.1,1.6-4.7,2.3-7.1,3.4c-2.4,1.1-4.7,3-5.1,5.6c-0.4,2.3,0.8,4.7,0,6.9c-0.5,1.3-1.7,2.3-2.5,3.5
		c-1.3,2.1-1.2,4.8-2.5,6.9c-1.4,2.2-4.1,3-6.5,3.7c-3.4,1-6.9,2-10.3,3c-5.2,1.5-11.7,2.7-15.2-1.5c-1.6-2-2.1-4.6-2.4-7.2
		c-0.5-5.2-1-11.5,1.6-16C1161.9,884.1,1164.6,878.5,1167.7,875.5z"/><linearGradient id="SVGID_41_" x1="-9125.914" x2="-9516.828" y1="859.117" y2="869.726" gradientTransform="matrix(-1 0 0 1 -8239.095 0)" gradientUnits="userSpaceOnUse"><stop offset="0" stop-color="#ffb682"/><stop offset="1" stop-color="#ee5379"/></linearGradient><path fill="url(#SVGID_41_)" d="M908.9,798.5c12.2-66.8,58.7-108.7,58.7-108.7s22.8,9.4,41.3,26.9c13.2,12.4,39.6,89.3,53.8,163.8
		c28.9,3.5,59.7,8.6,96.4,1.7l5.1,32.2c-31.8,16.3-66.1,17.7-101.4,18.2c0.8,11.4,1,28,0.4,38.1c-4.9,86.3-124,66.2-142.8,41.3
		C900.1,985,896.7,865.3,908.9,798.5z"/><path fill="#f8ac9b" d="M1064.9,932.2c0,0-41.8-1.8-62.6-16.4c-20.8-14.7-44.5-102.9-47.3-112.4c-4-13.3-5.7-61.1-5.7-61.1
		s-9.1,40.5-9,65.2c0.5,90.2,39.2,111.1,53.3,116.5C1022.4,935,1064.9,932.2,1064.9,932.2z" opacity=".5"/><g><path fill="#febf00" d="M1447.7,1331.9c0,2.4-2.6,4.6-7.4,6.7c-1.6,0.7-3.4,1.4-5.5,2.1c-0.9,0.3-1.8,0.6-2.8,0.8
					c-4.2,1.2-9.2,2.3-14.7,3.3c-6.5,1.1-13.7,2.2-21.7,3c-1.8,0.2-3.6,0.4-5.5,0.5c-0.9,0.1-1.8,0.2-2.8,0.2
					c-4.7,0.4-9.7,0.7-14.7,1c-7,0.4-14.2,0.6-21.7,0.8c-1.8,0-3.7,0.1-5.5,0.1c-0.9,0-1.8,0-2.8,0c-0.8,0-1.6,0-2.5,0
					c-4.2,0-8.3,0-12.3-0.1c-7.5-0.1-14.8-0.4-21.7-0.8c-1.9-0.1-3.7-0.2-5.5-0.3c-0.9-0.1-1.9-0.1-2.8-0.2
					c-5.1-0.4-10.1-0.8-14.7-1.3c-8-0.9-15.3-1.9-21.7-3.1c-1.9-0.4-3.8-0.7-5.5-1.1c-0.9-0.2-1.9-0.4-2.8-0.6
					c-6.2-1.5-11.2-3.1-14.7-4.9c-3.8-1.9-5.8-3.9-5.8-6l0,28.2h0c0.1,2.1,2.1,4,5.8,5.9c3.5,1.8,8.5,3.4,14.7,4.9
					c0.9,0.2,1.8,0.4,2.8,0.6c1.8,0.4,3.6,0.7,5.5,1.1c6.4,1.2,13.7,2.2,21.7,3.1c4.7,0.5,9.6,0.9,14.7,1.3c0.9,0.1,1.8,0.1,2.8,0.2
					c1.8,0.1,3.6,0.2,5.5,0.3c7,0.4,14.2,0.7,21.7,0.8c4,0.1,8.1,0.1,12.3,0.1c0.8,0,1.6,0,2.4,0c0.9,0,1.8,0,2.8,0
					c1.8,0,3.7,0,5.5-0.1c7.5-0.1,14.8-0.4,21.7-0.8c5.1-0.3,10-0.6,14.7-1c0.9-0.1,1.8-0.2,2.8-0.2c1.9-0.2,3.7-0.3,5.5-0.5
					c8-0.8,15.3-1.8,21.7-3c5.6-1,10.5-2.1,14.7-3.3c1-0.3,1.9-0.6,2.8-0.8c2.1-0.7,3.9-1.3,5.5-2.1c4.7-2.1,7.3-4.3,7.4-6.6h0
					L1447.7,1331.9z"/><path d="M1447.7,1331.9c0,2.4-2.6,4.6-7.4,6.7c-1.6,0.7-3.4,1.4-5.5,2.1c-0.9,0.3-1.8,0.6-2.8,0.8
					c-4.2,1.2-9.2,2.3-14.7,3.3c-6.5,1.1-13.7,2.2-21.7,3c-1.8,0.2-3.6,0.4-5.5,0.5c-0.9,0.1-1.8,0.2-2.8,0.2
					c-4.7,0.4-9.7,0.7-14.7,1c-7,0.4-14.2,0.6-21.7,0.8c-1.8,0-3.7,0.1-5.5,0.1c-0.9,0-1.8,0-2.8,0c-0.8,0-1.6,0-2.5,0
					c-4.2,0-8.3,0-12.3-0.1c-7.5-0.1-14.8-0.4-21.7-0.8c-1.9-0.1-3.7-0.2-5.5-0.3c-0.9-0.1-1.9-0.1-2.8-0.2
					c-5.1-0.4-10.1-0.8-14.7-1.3c-8-0.9-15.3-1.9-21.7-3.1c-1.9-0.4-3.8-0.7-5.5-1.1c-0.9-0.2-1.9-0.4-2.8-0.6
					c-6.2-1.5-11.2-3.1-14.7-4.9c-3.8-1.9-5.8-3.9-5.8-6l0,28.2h0c0.1,2.1,2.1,4,5.8,5.9c3.5,1.8,8.5,3.4,14.7,4.9
					c0.9,0.2,1.8,0.4,2.8,0.6c1.8,0.4,3.6,0.7,5.5,1.1c6.4,1.2,13.7,2.2,21.7,3.1c4.7,0.5,9.6,0.9,14.7,1.3c0.9,0.1,1.8,0.1,2.8,0.2
					c1.8,0.1,3.6,0.2,5.5,0.3c7,0.4,14.2,0.7,21.7,0.8c4,0.1,8.1,0.1,12.3,0.1c0.8,0,1.6,0,2.4,0c0.9,0,1.8,0,2.8,0
					c1.8,0,3.7,0,5.5-0.1c7.5-0.1,14.8-0.4,21.7-0.8c5.1-0.3,10-0.6,14.7-1c0.9-0.1,1.8-0.2,2.8-0.2c1.9-0.2,3.7-0.3,5.5-0.5
					c8-0.8,15.3-1.8,21.7-3c5.6-1,10.5-2.1,14.7-3.3c1-0.3,1.9-0.6,2.8-0.8c2.1-0.7,3.9-1.3,5.5-2.1c4.7-2.1,7.3-4.3,7.4-6.6h0
					L1447.7,1331.9z" opacity=".3"/><ellipse cx="1340.1" cy="1330" fill="#febf00" rx="107.6" ry="17.7"/><path fill="#febf00" d="M1340.1,1319.1c50.1,0,91.2,5.2,95.2,11.9c0.2-0.3,0.3-0.7,0.3-1c0-7.2-42.8-12.9-95.5-12.9
					c-52.7,0-95.5,5.8-95.5,13c0,0.4,0.1,0.7,0.3,1C1248.9,1324.4,1290,1319.1,1340.1,1319.1z"/><path d="M1340.1,1319.1c50.1,0,91.2,5.2,95.2,11.9c0.2-0.3,0.3-0.7,0.3-1c0-7.2-42.8-12.9-95.5-12.9
					c-52.7,0-95.5,5.8-95.5,13c0,0.4,0.1,0.7,0.3,1C1248.9,1324.4,1290,1319.1,1340.1,1319.1z" opacity=".1"/><path fill="#fcd721" d="M1340.2,1342.9c50.1,0,91.2-5.3,95.1-11.9c-3.9-6.7-45-11.9-95.2-11.9c-50.1,0-91.2,5.3-95.1,11.9
					C1248.9,1337.7,1290,1342.9,1340.2,1342.9z"/><path fill="#febf00" d="M1232.5,1330.1l0,26.9h0c0.1,2,2.1,3.9,5.8,5.6v-26.8C1234.6,1334,1232.6,1332.1,1232.5,1330.1z"/><path fill="#febf00" d="M1342.6,1374.5c0.9,0,1.8,0,2.8,0v-26.8c-0.9,0-1.8,0-2.8,0V1374.5z"/><path fill="#febf00" d="M1297.9,1373.1c0.9,0.1,1.8,0.1,2.8,0.2v-26.8c-0.9-0.1-1.9-0.1-2.8-0.2V1373.1z"/><path fill="#febf00" d="M1253.1,1367.2c0.9,0.2,1.8,0.4,2.8,0.6V1341c-0.9-0.2-1.9-0.4-2.8-0.6V1367.2z"/><path fill="#febf00" d="M1447.7,1330c0,2.3-2.6,4.4-7.4,6.4v26.8c4.7-2,7.3-4.1,7.4-6.3h0L1447.7,1330z"/><path fill="#febf00" d="M1432.1,1366c1-0.3,1.9-0.5,2.8-0.8v-26.8c-0.9,0.3-1.8,0.5-2.8,0.8V1366z"/><path fill="#febf00" d="M1390.1,1345.7c-0.9,0.1-1.8,0.2-2.8,0.2c-4.7,0.4-9.7,0.7-14.7,1c-7,0.4-14.2,0.6-21.7,0.7v26.8
							c7.5-0.1,14.8-0.4,21.7-0.7c5.1-0.3,10-0.6,14.7-1c0.9-0.1,1.8-0.2,2.8-0.2c1.9-0.2,3.7-0.3,5.5-0.5c8-0.8,15.3-1.8,21.7-2.9
							v-26.8c-6.5,1.1-13.7,2.1-21.7,2.8C1393.8,1345.3,1392,1345.5,1390.1,1345.7z"/><g><path fill="#ffdf00" d="M1261.4,1342.1c-1.9-0.3-3.8-0.7-5.5-1.1v26.8c1.8,0.4,3.6,0.7,5.5,1.1c6.4,1.1,13.7,2.1,21.7,2.9
							c4.7,0.5,9.6,0.9,14.7,1.3v-26.8c-5.1-0.4-10.1-0.8-14.7-1.3C1275.1,1344.2,1267.8,1343.2,1261.4,1342.1z"/><path fill="#ffdf00" d="M1238.4,1362.6c3.5,1.7,8.5,3.2,14.7,4.7v-26.8c-6.2-1.4-11.2-3-14.7-4.6V1362.6z"/><path fill="#ffdf00" d="M1327.9,1347.6c-7.5-0.1-14.8-0.4-21.7-0.8c-1.9-0.1-3.7-0.2-5.5-0.3v26.8c1.8,0.1,3.6,0.2,5.5,0.3
							c7,0.4,14.2,0.6,21.7,0.8c4,0.1,8.1,0.1,12.3,0.1c0.8,0,1.6,0,2.4,0v-26.8c-0.8,0-1.6,0-2.5,0
							C1336,1347.7,1331.9,1347.7,1327.9,1347.6z"/><path fill="#ffdf00" d="M1345.4,1374.5c1.8,0,3.7,0,5.5-0.1v-26.8c-1.8,0-3.7,0.1-5.5,0.1V1374.5z"/><path fill="#ffdf00" d="M1417.4,1369.1c5.6-0.9,10.5-2,14.7-3.1v-26.8c-4.2,1.1-9.2,2.2-14.7,3.1V1369.1z"/><path fill="#ffdf00" d="M1434.9,1338.4v26.8c2.1-0.6,3.9-1.3,5.5-2v-26.8C1438.8,1337.1,1436.9,1337.8,1434.9,1338.4z"/></g><g><path fill="#febf00" d="M1447.7,1289.3c0,2.4-2.6,4.6-7.4,6.7c-1.6,0.7-3.4,1.4-5.5,2.1c-0.9,0.3-1.8,0.6-2.8,0.8
					c-4.2,1.2-9.2,2.3-14.7,3.3c-6.5,1.1-13.7,2.2-21.7,3c-1.8,0.2-3.6,0.4-5.5,0.5c-0.9,0.1-1.8,0.2-2.8,0.2
					c-4.7,0.4-9.7,0.7-14.7,1c-7,0.4-14.2,0.6-21.7,0.8c-1.8,0-3.7,0.1-5.5,0.1c-0.9,0-1.8,0-2.8,0c-0.8,0-1.6,0-2.5,0
					c-4.2,0-8.3,0-12.3-0.1c-7.5-0.1-14.8-0.4-21.7-0.8c-1.9-0.1-3.7-0.2-5.5-0.3c-0.9-0.1-1.9-0.1-2.8-0.2
					c-5.1-0.4-10.1-0.8-14.7-1.3c-8-0.9-15.3-1.9-21.7-3.1c-1.9-0.4-3.8-0.7-5.5-1.1c-0.9-0.2-1.9-0.4-2.8-0.6
					c-6.2-1.5-11.2-3.1-14.7-4.9c-3.8-1.9-5.8-3.9-5.8-6l0,28.2h0c0.1,2.1,2.1,4,5.8,5.9c3.5,1.8,8.5,3.4,14.7,4.9
					c0.9,0.2,1.8,0.4,2.8,0.6c1.8,0.4,3.6,0.7,5.5,1.1c6.4,1.2,13.7,2.2,21.7,3.1c4.7,0.5,9.6,0.9,14.7,1.3c0.9,0.1,1.8,0.1,2.8,0.2
					c1.8,0.1,3.6,0.2,5.5,0.3c7,0.4,14.2,0.7,21.7,0.8c4,0.1,8.1,0.1,12.3,0.1c0.8,0,1.6,0,2.4,0c0.9,0,1.8,0,2.8,0
					c1.8,0,3.7,0,5.5-0.1c7.5-0.1,14.8-0.4,21.7-0.8c5.1-0.3,10-0.6,14.7-1c0.9-0.1,1.8-0.2,2.8-0.2c1.9-0.2,3.7-0.3,5.5-0.5
					c8-0.8,15.3-1.8,21.7-3c5.6-1,10.5-2.1,14.7-3.3c1-0.3,1.9-0.6,2.8-0.8c2.1-0.7,3.9-1.3,5.5-2.1c4.7-2.1,7.3-4.3,7.4-6.6h0
					L1447.7,1289.3z"/><path d="M1447.7,1289.3c0,2.4-2.6,4.6-7.4,6.7c-1.6,0.7-3.4,1.4-5.5,2.1c-0.9,0.3-1.8,0.6-2.8,0.8
					c-4.2,1.2-9.2,2.3-14.7,3.3c-6.5,1.1-13.7,2.2-21.7,3c-1.8,0.2-3.6,0.4-5.5,0.5c-0.9,0.1-1.8,0.2-2.8,0.2
					c-4.7,0.4-9.7,0.7-14.7,1c-7,0.4-14.2,0.6-21.7,0.8c-1.8,0-3.7,0.1-5.5,0.1c-0.9,0-1.8,0-2.8,0c-0.8,0-1.6,0-2.5,0
					c-4.2,0-8.3,0-12.3-0.1c-7.5-0.1-14.8-0.4-21.7-0.8c-1.9-0.1-3.7-0.2-5.5-0.3c-0.9-0.1-1.9-0.1-2.8-0.2
					c-5.1-0.4-10.1-0.8-14.7-1.3c-8-0.9-15.3-1.9-21.7-3.1c-1.9-0.4-3.8-0.7-5.5-1.1c-0.9-0.2-1.9-0.4-2.8-0.6
					c-6.2-1.5-11.2-3.1-14.7-4.9c-3.8-1.9-5.8-3.9-5.8-6l0,28.2h0c0.1,2.1,2.1,4,5.8,5.9c3.5,1.8,8.5,3.4,14.7,4.9
					c0.9,0.2,1.8,0.4,2.8,0.6c1.8,0.4,3.6,0.7,5.5,1.1c6.4,1.2,13.7,2.2,21.7,3.1c4.7,0.5,9.6,0.9,14.7,1.3c0.9,0.1,1.8,0.1,2.8,0.2
					c1.8,0.1,3.6,0.2,5.5,0.3c7,0.4,14.2,0.7,21.7,0.8c4,0.1,8.1,0.1,12.3,0.1c0.8,0,1.6,0,2.4,0c0.9,0,1.8,0,2.8,0
					c1.8,0,3.7,0,5.5-0.1c7.5-0.1,14.8-0.4,21.7-0.8c5.1-0.3,10-0.6,14.7-1c0.9-0.1,1.8-0.2,2.8-0.2c1.9-0.2,3.7-0.3,5.5-0.5
					c8-0.8,15.3-1.8,21.7-3c5.6-1,10.5-2.1,14.7-3.3c1-0.3,1.9-0.6,2.8-0.8c2.1-0.7,3.9-1.3,5.5-2.1c4.7-2.1,7.3-4.3,7.4-6.6h0
					L1447.7,1289.3z" opacity=".3"/><ellipse cx="1340.1" cy="1287.4" fill="#febf00" rx="107.6" ry="17.7"/><path fill="#febf00" d="M1340.1,1276.5c50.1,0,91.2,5.2,95.2,11.9c0.2-0.3,0.3-0.7,0.3-1c0-7.2-42.8-12.9-95.5-12.9
					c-52.7,0-95.5,5.8-95.5,13c0,0.4,0.1,0.7,0.3,1C1248.9,1281.7,1290,1276.5,1340.1,1276.5z"/><path d="M1340.1,1276.5c50.1,0,91.2,5.2,95.2,11.9c0.2-0.3,0.3-0.7,0.3-1c0-7.2-42.8-12.9-95.5-12.9
					c-52.7,0-95.5,5.8-95.5,13c0,0.4,0.1,0.7,0.3,1C1248.9,1281.7,1290,1276.5,1340.1,1276.5z" opacity=".1"/><path fill="#fcd721" d="M1340.2,1300.3c50.1,0,91.2-5.3,95.1-11.9c-3.9-6.7-45-11.9-95.2-11.9c-50.1,0-91.2,5.3-95.1,11.9
					C1248.9,1295.1,1290,1300.3,1340.2,1300.3z"/><path fill="#febf00" d="M1232.5,1287.4l0,26.9h0c0.1,2,2.1,3.9,5.8,5.6v-26.8C1234.6,1291.4,1232.6,1289.4,1232.5,1287.4z"/><path fill="#febf00" d="M1342.6,1331.9c0.9,0,1.8,0,2.8,0v-26.8c-0.9,0-1.8,0-2.8,0V1331.9z"/><path fill="#febf00" d="M1297.9,1330.5c0.9,0.1,1.8,0.1,2.8,0.2v-26.8c-0.9-0.1-1.9-0.1-2.8-0.2V1330.5z"/><path fill="#febf00" d="M1253.1,1324.6c0.9,0.2,1.8,0.4,2.8,0.6v-26.8c-0.9-0.2-1.9-0.4-2.8-0.6V1324.6z"/><path fill="#febf00" d="M1447.7,1287.4c0,2.3-2.6,4.4-7.4,6.4v26.8c4.7-2,7.3-4.1,7.4-6.3h0L1447.7,1287.4z"/><path fill="#febf00" d="M1432.1,1323.4c1-0.3,1.9-0.5,2.8-0.8v-26.8c-0.9,0.3-1.8,0.5-2.8,0.8V1323.4z"/><path fill="#febf00" d="M1390.1,1303c-0.9,0.1-1.8,0.2-2.8,0.2c-4.7,0.4-9.7,0.7-14.7,1c-7,0.4-14.2,0.6-21.7,0.7v26.8
							c7.5-0.1,14.8-0.4,21.7-0.7c5.1-0.3,10-0.6,14.7-1c0.9-0.1,1.8-0.2,2.8-0.2c1.9-0.2,3.7-0.3,5.5-0.5c8-0.8,15.3-1.8,21.7-2.9
							v-26.8c-6.5,1.1-13.7,2.1-21.7,2.8C1393.8,1302.7,1392,1302.9,1390.1,1303z"/><g><path fill="#ffdf00" d="M1261.4,1299.5c-1.9-0.3-3.8-0.7-5.5-1.1v26.8c1.8,0.4,3.6,0.7,5.5,1.1c6.4,1.1,13.7,2.1,21.7,2.9
							c4.7,0.5,9.6,0.9,14.7,1.3v-26.8c-5.1-0.4-10.1-0.8-14.7-1.3C1275.1,1301.6,1267.8,1300.6,1261.4,1299.5z"/><path fill="#ffdf00" d="M1238.4,1320c3.5,1.7,8.5,3.2,14.7,4.7v-26.8c-6.2-1.4-11.2-3-14.7-4.6V1320z"/><path fill="#ffdf00" d="M1327.9,1305c-7.5-0.1-14.8-0.4-21.7-0.8c-1.9-0.1-3.7-0.2-5.5-0.3v26.8c1.8,0.1,3.6,0.2,5.5,0.3
							c7,0.4,14.2,0.6,21.7,0.8c4,0.1,8.1,0.1,12.3,0.1c0.8,0,1.6,0,2.4,0v-26.8c-0.8,0-1.6,0-2.5,0
							C1336,1305.1,1331.9,1305,1327.9,1305z"/><path fill="#ffdf00" d="M1345.4,1331.9c1.8,0,3.7,0,5.5-0.1V1305c-1.8,0-3.7,0.1-5.5,0.1V1331.9z"/><path fill="#ffdf00" d="M1417.4,1326.5c5.6-0.9,10.5-2,14.7-3.1v-26.8c-4.2,1.1-9.2,2.2-14.7,3.1V1326.5z"/><path fill="#ffdf00" d="M1434.9,1295.8v26.8c2.1-0.6,3.9-1.3,5.5-2v-26.8C1438.8,1294.5,1436.9,1295.1,1434.9,1295.8z"/></g></g><g><path fill="#febf00" d="M1447.7,1246.6c0,2.4-2.6,4.6-7.4,6.7c-1.6,0.7-3.4,1.4-5.5,2.1c-0.9,0.3-1.8,0.6-2.8,0.8
					c-4.2,1.2-9.2,2.3-14.7,3.3c-6.5,1.1-13.7,2.2-21.7,3c-1.8,0.2-3.6,0.4-5.5,0.5c-0.9,0.1-1.8,0.2-2.8,0.2
					c-4.7,0.4-9.7,0.7-14.7,1c-7,0.4-14.2,0.6-21.7,0.8c-1.8,0-3.7,0.1-5.5,0.1c-0.9,0-1.8,0-2.8,0c-0.8,0-1.6,0-2.5,0
					c-4.2,0-8.3,0-12.3-0.1c-7.5-0.1-14.8-0.4-21.7-0.8c-1.9-0.1-3.7-0.2-5.5-0.3c-0.9-0.1-1.9-0.1-2.8-0.2
					c-5.1-0.4-10.1-0.8-14.7-1.3c-8-0.9-15.3-1.9-21.7-3.1c-1.9-0.4-3.8-0.7-5.5-1.1c-0.9-0.2-1.9-0.4-2.8-0.6
					c-6.2-1.5-11.2-3.1-14.7-4.9c-3.8-1.9-5.8-3.9-5.8-6l0,28.2h0c0.1,2.1,2.1,4,5.8,5.9c3.5,1.8,8.5,3.4,14.7,4.9
					c0.9,0.2,1.8,0.4,2.8,0.6c1.8,0.4,3.6,0.7,5.5,1.1c6.4,1.2,13.7,2.2,21.7,3.1c4.7,0.5,9.6,0.9,14.7,1.3c0.9,0.1,1.8,0.1,2.8,0.2
					c1.8,0.1,3.6,0.2,5.5,0.3c7,0.4,14.2,0.7,21.7,0.8c4,0.1,8.1,0.1,12.3,0.1c0.8,0,1.6,0,2.4,0c0.9,0,1.8,0,2.8,0
					c1.8,0,3.7,0,5.5-0.1c7.5-0.1,14.8-0.4,21.7-0.8c5.1-0.3,10-0.6,14.7-1c0.9-0.1,1.8-0.2,2.8-0.2c1.9-0.2,3.7-0.3,5.5-0.5
					c8-0.8,15.3-1.8,21.7-3c5.6-1,10.5-2.1,14.7-3.3c1-0.3,1.9-0.6,2.8-0.8c2.1-0.7,3.9-1.3,5.5-2.1c4.7-2.1,7.3-4.3,7.4-6.6h0
					L1447.7,1246.6z"/><path d="M1447.7,1246.6c0,2.4-2.6,4.6-7.4,6.7c-1.6,0.7-3.4,1.4-5.5,2.1c-0.9,0.3-1.8,0.6-2.8,0.8
					c-4.2,1.2-9.2,2.3-14.7,3.3c-6.5,1.1-13.7,2.2-21.7,3c-1.8,0.2-3.6,0.4-5.5,0.5c-0.9,0.1-1.8,0.2-2.8,0.2
					c-4.7,0.4-9.7,0.7-14.7,1c-7,0.4-14.2,0.6-21.7,0.8c-1.8,0-3.7,0.1-5.5,0.1c-0.9,0-1.8,0-2.8,0c-0.8,0-1.6,0-2.5,0
					c-4.2,0-8.3,0-12.3-0.1c-7.5-0.1-14.8-0.4-21.7-0.8c-1.9-0.1-3.7-0.2-5.5-0.3c-0.9-0.1-1.9-0.1-2.8-0.2
					c-5.1-0.4-10.1-0.8-14.7-1.3c-8-0.9-15.3-1.9-21.7-3.1c-1.9-0.4-3.8-0.7-5.5-1.1c-0.9-0.2-1.9-0.4-2.8-0.6
					c-6.2-1.5-11.2-3.1-14.7-4.9c-3.8-1.9-5.8-3.9-5.8-6l0,28.2h0c0.1,2.1,2.1,4,5.8,5.9c3.5,1.8,8.5,3.4,14.7,4.9
					c0.9,0.2,1.8,0.4,2.8,0.6c1.8,0.4,3.6,0.7,5.5,1.1c6.4,1.2,13.7,2.2,21.7,3.1c4.7,0.5,9.6,0.9,14.7,1.3c0.9,0.1,1.8,0.1,2.8,0.2
					c1.8,0.1,3.6,0.2,5.5,0.3c7,0.4,14.2,0.7,21.7,0.8c4,0.1,8.1,0.1,12.3,0.1c0.8,0,1.6,0,2.4,0c0.9,0,1.8,0,2.8,0
					c1.8,0,3.7,0,5.5-0.1c7.5-0.1,14.8-0.4,21.7-0.8c5.1-0.3,10-0.6,14.7-1c0.9-0.1,1.8-0.2,2.8-0.2c1.9-0.2,3.7-0.3,5.5-0.5
					c8-0.8,15.3-1.8,21.7-3c5.6-1,10.5-2.1,14.7-3.3c1-0.3,1.9-0.6,2.8-0.8c2.1-0.7,3.9-1.3,5.5-2.1c4.7-2.1,7.3-4.3,7.4-6.6h0
					L1447.7,1246.6z" opacity=".3"/><path fill="#febf00" d="M1447.7,1244.7c0,9.8-48.2,17.7-107.6,17.7s-107.6-7.9-107.6-17.6c0-9.8,48.2-17.7,107.6-17.7
					S1447.7,1234.9,1447.7,1244.7z"/><path fill="#febf00" d="M1340.1,1233.8c50.1,0,91.2,5.2,95.2,11.9c0.2-0.3,0.3-0.7,0.3-1c0-7.2-42.8-12.9-95.5-12.9
					c-52.7,0-95.5,5.8-95.5,13c0,0.4,0.1,0.7,0.3,1C1248.9,1239.1,1290,1233.9,1340.1,1233.8z"/><path d="M1340.1,1233.8c50.1,0,91.2,5.2,95.2,11.9c0.2-0.3,0.3-0.7,0.3-1c0-7.2-42.8-12.9-95.5-12.9
					c-52.7,0-95.5,5.8-95.5,13c0,0.4,0.1,0.7,0.3,1C1248.9,1239.1,1290,1233.9,1340.1,1233.8z" opacity=".1"/><path fill="#fcd721" d="M1340.2,1257.7c50.1,0,91.2-5.3,95.1-11.9c-3.9-6.7-45-11.9-95.2-11.9c-50.1,0-91.2,5.3-95.1,11.9
					C1248.9,1252.4,1290,1257.7,1340.2,1257.7z"/><path fill="#febf00" d="M1232.5,1244.8l0,26.9h0c0.1,2,2.1,3.9,5.8,5.6v-26.8C1234.6,1248.7,1232.6,1246.8,1232.5,1244.8z"/><path fill="#febf00" d="M1342.6,1289.2c0.9,0,1.8,0,2.8,0v-26.8c-0.9,0-1.8,0-2.8,0V1289.2z"/><path fill="#febf00" d="M1297.9,1287.8c0.9,0.1,1.8,0.1,2.8,0.2v-26.8c-0.9-0.1-1.9-0.1-2.8-0.2V1287.8z"/><path fill="#febf00" d="M1253.1,1282c0.9,0.2,1.8,0.4,2.8,0.6v-26.8c-0.9-0.2-1.9-0.4-2.8-0.6V1282z"/><path fill="#febf00" d="M1447.7,1244.7c0,2.3-2.6,4.4-7.4,6.4v26.8c4.7-2,7.3-4.1,7.4-6.3h0L1447.7,1244.7z"/><path fill="#febf00" d="M1432.1,1280.7c1-0.3,1.9-0.5,2.8-0.8v-26.8c-0.9,0.3-1.8,0.5-2.8,0.8V1280.7z"/><path fill="#febf00" d="M1390.1,1260.4c-0.9,0.1-1.8,0.2-2.8,0.2c-4.7,0.4-9.7,0.7-14.7,1c-7,0.4-14.2,0.6-21.7,0.7v26.8
							c7.5-0.1,14.8-0.4,21.7-0.7c5.1-0.3,10-0.6,14.7-1c0.9-0.1,1.8-0.2,2.8-0.2c1.9-0.2,3.7-0.3,5.5-0.5c8-0.8,15.3-1.8,21.7-2.9
							v-26.8c-6.5,1.1-13.7,2.1-21.7,2.8C1393.8,1260.1,1392,1260.2,1390.1,1260.4z"/><g><path fill="#ffdf00" d="M1261.4,1256.8c-1.9-0.3-3.8-0.7-5.5-1.1v26.8c1.8,0.4,3.6,0.7,5.5,1.1c6.4,1.1,13.7,2.1,21.7,2.9
							c4.7,0.5,9.6,0.9,14.7,1.3V1261c-5.1-0.4-10.1-0.8-14.7-1.3C1275.1,1259,1267.8,1258,1261.4,1256.8z"/><path fill="#ffdf00" d="M1238.4,1277.3c3.5,1.7,8.5,3.2,14.7,4.7v-26.8c-6.2-1.4-11.2-3-14.7-4.6V1277.3z"/><path fill="#ffdf00" d="M1327.9,1262.3c-7.5-0.1-14.8-0.4-21.7-0.8c-1.9-0.1-3.7-0.2-5.5-0.3v26.8c1.8,0.1,3.6,0.2,5.5,0.3
							c7,0.4,14.2,0.6,21.7,0.8c4,0.1,8.1,0.1,12.3,0.1c0.8,0,1.6,0,2.4,0v-26.8c-0.8,0-1.6,0-2.5,0
							C1336,1262.4,1331.9,1262.4,1327.9,1262.3z"/><path fill="#ffdf00" d="M1345.4,1289.2c1.8,0,3.7,0,5.5-0.1v-26.8c-1.8,0-3.7,0.1-5.5,0.1V1289.2z"/><path fill="#ffdf00" d="M1417.4,1283.8c5.6-0.9,10.5-2,14.7-3.1v-26.8c-4.2,1.1-9.2,2.2-14.7,3.1V1283.8z"/><path fill="#ffdf00" d="M1434.9,1253.1v26.8c2.1-0.6,3.9-1.3,5.5-2v-26.8C1438.8,1251.8,1436.9,1252.5,1434.9,1253.1z"/></g></g><g><path fill="#febf00" d="M1447.7,1204c0,2.4-2.6,4.6-7.4,6.7c-1.6,0.7-3.4,1.4-5.5,2.1c-0.9,0.3-1.8,0.6-2.8,0.8
					c-4.2,1.2-9.2,2.3-14.7,3.3c-6.5,1.1-13.7,2.2-21.7,3c-1.8,0.2-3.6,0.4-5.5,0.5c-0.9,0.1-1.8,0.2-2.8,0.2
					c-4.7,0.4-9.7,0.7-14.7,1c-7,0.4-14.2,0.6-21.7,0.8c-1.8,0-3.7,0.1-5.5,0.1c-0.9,0-1.8,0-2.8,0c-0.8,0-1.6,0-2.5,0
					c-4.2,0-8.3,0-12.3-0.1c-7.5-0.1-14.8-0.4-21.7-0.8c-1.9-0.1-3.7-0.2-5.5-0.3c-0.9-0.1-1.9-0.1-2.8-0.2
					c-5.1-0.4-10.1-0.8-14.7-1.3c-8-0.9-15.3-1.9-21.7-3.1c-1.9-0.4-3.8-0.7-5.5-1.1c-0.9-0.2-1.9-0.4-2.8-0.6
					c-6.2-1.5-11.2-3.1-14.7-4.9c-3.8-1.9-5.8-3.9-5.8-6l0,28.2h0c0.1,2.1,2.1,4,5.8,5.9c3.5,1.8,8.5,3.4,14.7,4.9
					c0.9,0.2,1.8,0.4,2.8,0.6c1.8,0.4,3.6,0.7,5.5,1.1c6.4,1.2,13.7,2.2,21.7,3.1c4.7,0.5,9.6,0.9,14.7,1.3c0.9,0.1,1.8,0.1,2.8,0.2
					c1.8,0.1,3.6,0.2,5.5,0.3c7,0.4,14.2,0.7,21.7,0.8c4,0.1,8.1,0.1,12.3,0.1c0.8,0,1.6,0,2.4,0c0.9,0,1.8,0,2.8,0
					c1.8,0,3.7,0,5.5-0.1c7.5-0.1,14.8-0.4,21.7-0.8c5.1-0.3,10-0.6,14.7-1c0.9-0.1,1.8-0.2,2.8-0.2c1.9-0.2,3.7-0.3,5.5-0.5
					c8-0.8,15.3-1.8,21.7-3c5.6-1,10.5-2.1,14.7-3.3c1-0.3,1.9-0.6,2.8-0.8c2.1-0.7,3.9-1.3,5.5-2.1c4.7-2.1,7.3-4.3,7.4-6.6h0
					L1447.7,1204z"/><path d="M1447.7,1204c0,2.4-2.6,4.6-7.4,6.7c-1.6,0.7-3.4,1.4-5.5,2.1c-0.9,0.3-1.8,0.6-2.8,0.8
					c-4.2,1.2-9.2,2.3-14.7,3.3c-6.5,1.1-13.7,2.2-21.7,3c-1.8,0.2-3.6,0.4-5.5,0.5c-0.9,0.1-1.8,0.2-2.8,0.2
					c-4.7,0.4-9.7,0.7-14.7,1c-7,0.4-14.2,0.6-21.7,0.8c-1.8,0-3.7,0.1-5.5,0.1c-0.9,0-1.8,0-2.8,0c-0.8,0-1.6,0-2.5,0
					c-4.2,0-8.3,0-12.3-0.1c-7.5-0.1-14.8-0.4-21.7-0.8c-1.9-0.1-3.7-0.2-5.5-0.3c-0.9-0.1-1.9-0.1-2.8-0.2
					c-5.1-0.4-10.1-0.8-14.7-1.3c-8-0.9-15.3-1.9-21.7-3.1c-1.9-0.4-3.8-0.7-5.5-1.1c-0.9-0.2-1.9-0.4-2.8-0.6
					c-6.2-1.5-11.2-3.1-14.7-4.9c-3.8-1.9-5.8-3.9-5.8-6l0,28.2h0c0.1,2.1,2.1,4,5.8,5.9c3.5,1.8,8.5,3.4,14.7,4.9
					c0.9,0.2,1.8,0.4,2.8,0.6c1.8,0.4,3.6,0.7,5.5,1.1c6.4,1.2,13.7,2.2,21.7,3.1c4.7,0.5,9.6,0.9,14.7,1.3c0.9,0.1,1.8,0.1,2.8,0.2
					c1.8,0.1,3.6,0.2,5.5,0.3c7,0.4,14.2,0.7,21.7,0.8c4,0.1,8.1,0.1,12.3,0.1c0.8,0,1.6,0,2.4,0c0.9,0,1.8,0,2.8,0
					c1.8,0,3.7,0,5.5-0.1c7.5-0.1,14.8-0.4,21.7-0.8c5.1-0.3,10-0.6,14.7-1c0.9-0.1,1.8-0.2,2.8-0.2c1.9-0.2,3.7-0.3,5.5-0.5
					c8-0.8,15.3-1.8,21.7-3c5.6-1,10.5-2.1,14.7-3.3c1-0.3,1.9-0.6,2.8-0.8c2.1-0.7,3.9-1.3,5.5-2.1c4.7-2.1,7.3-4.3,7.4-6.6h0
					L1447.7,1204z" opacity=".3"/><ellipse cx="1340.1" cy="1202.1" fill="#febf00" rx="107.6" ry="17.7"/><path fill="#febf00" d="M1340.1,1191.2c50.1,0,91.2,5.2,95.2,11.9c0.2-0.3,0.3-0.7,0.3-1c0-7.2-42.8-12.9-95.5-12.9
					c-52.7,0-95.5,5.8-95.5,13c0,0.4,0.1,0.7,0.3,1C1248.9,1196.5,1290,1191.2,1340.1,1191.2z"/><path d="M1340.1,1191.2c50.1,0,91.2,5.2,95.2,11.9c0.2-0.3,0.3-0.7,0.3-1c0-7.2-42.8-12.9-95.5-12.9
					c-52.7,0-95.5,5.8-95.5,13c0,0.4,0.1,0.7,0.3,1C1248.9,1196.5,1290,1191.2,1340.1,1191.2z" opacity=".1"/><path fill="#fcd721" d="M1340.2,1215c50.1,0,91.2-5.3,95.1-11.9c-3.9-6.7-45-11.9-95.2-11.9c-50.1,0-91.2,5.3-95.1,11.9
					C1248.9,1209.8,1290,1215,1340.2,1215z"/><path fill="#febf00" d="M1232.5,1202.2l0,26.9h0c0.1,2,2.1,3.9,5.8,5.6v-26.8C1234.6,1206.1,1232.6,1204.2,1232.5,1202.2z"/><path fill="#febf00" d="M1342.6,1246.6c0.9,0,1.8,0,2.8,0v-26.8c-0.9,0-1.8,0-2.8,0V1246.6z"/><path fill="#febf00" d="M1297.9,1245.2c0.9,0.1,1.8,0.1,2.8,0.2v-26.8c-0.9-0.1-1.9-0.1-2.8-0.2V1245.2z"/><path fill="#febf00" d="M1253.1,1239.3c0.9,0.2,1.8,0.4,2.8,0.6v-26.8c-0.9-0.2-1.9-0.4-2.8-0.6V1239.3z"/><path fill="#febf00" d="M1447.7,1202.1c0,2.3-2.6,4.4-7.4,6.4v26.8c4.7-2,7.3-4.1,7.4-6.3h0L1447.7,1202.1z"/><path fill="#febf00" d="M1432.1,1238.1c1-0.3,1.9-0.5,2.8-0.8v-26.8c-0.9,0.3-1.8,0.5-2.8,0.8V1238.1z"/><path fill="#febf00" d="M1390.1,1217.8c-0.9,0.1-1.8,0.2-2.8,0.2c-4.7,0.4-9.7,0.7-14.7,1c-7,0.4-14.2,0.6-21.7,0.7v26.8
							c7.5-0.1,14.8-0.4,21.7-0.7c5.1-0.3,10-0.6,14.7-1c0.9-0.1,1.8-0.2,2.8-0.2c1.9-0.2,3.7-0.3,5.5-0.5c8-0.8,15.3-1.8,21.7-2.9
							v-26.8c-6.5,1.1-13.7,2.1-21.7,2.8C1393.8,1217.4,1392,1217.6,1390.1,1217.8z"/><g><path fill="#ffdf00" d="M1261.4,1214.2c-1.9-0.3-3.8-0.7-5.5-1.1v26.8c1.8,0.4,3.6,0.7,5.5,1.1c6.4,1.1,13.7,2.1,21.7,2.9
							c4.7,0.5,9.6,0.9,14.7,1.3v-26.8c-5.1-0.4-10.1-0.8-14.7-1.3C1275.1,1216.3,1267.8,1215.3,1261.4,1214.2z"/><path fill="#ffdf00" d="M1238.4,1234.7c3.5,1.7,8.5,3.2,14.7,4.7v-26.8c-6.2-1.4-11.2-3-14.7-4.6V1234.7z"/><path fill="#ffdf00" d="M1327.9,1219.7c-7.5-0.1-14.8-0.4-21.7-0.8c-1.9-0.1-3.7-0.2-5.5-0.3v26.8c1.8,0.1,3.6,0.2,5.5,0.3
							c7,0.4,14.2,0.6,21.7,0.8c4,0.1,8.1,0.1,12.3,0.1c0.8,0,1.6,0,2.4,0v-26.8c-0.8,0-1.6,0-2.5,0
							C1336,1219.8,1331.9,1219.8,1327.9,1219.7z"/><path fill="#ffdf00" d="M1345.4,1246.6c1.8,0,3.7,0,5.5-0.1v-26.8c-1.8,0-3.7,0.1-5.5,0.1V1246.6z"/><path fill="#ffdf00" d="M1417.4,1241.2c5.6-0.9,10.5-2,14.7-3.1v-26.8c-4.2,1.1-9.2,2.2-14.7,3.1V1241.2z"/><path fill="#ffdf00" d="M1434.9,1210.5v26.8c2.1-0.6,3.9-1.3,5.5-2v-26.8C1438.8,1209.2,1436.9,1209.9,1434.9,1210.5z"/></g></g><g><path fill="#febf00" d="M1447.7,1161.4c0,2.4-2.6,4.6-7.4,6.7c-1.6,0.7-3.4,1.4-5.5,2.1c-0.9,0.3-1.8,0.6-2.8,0.8
					c-4.2,1.2-9.2,2.3-14.7,3.3c-6.5,1.1-13.7,2.2-21.7,3c-1.8,0.2-3.6,0.4-5.5,0.5c-0.9,0.1-1.8,0.2-2.8,0.2
					c-4.7,0.4-9.7,0.7-14.7,1c-7,0.4-14.2,0.6-21.7,0.8c-1.8,0-3.7,0.1-5.5,0.1c-0.9,0-1.8,0-2.8,0c-0.8,0-1.6,0-2.5,0
					c-4.2,0-8.3,0-12.3-0.1c-7.5-0.1-14.8-0.4-21.7-0.8c-1.9-0.1-3.7-0.2-5.5-0.3c-0.9-0.1-1.9-0.1-2.8-0.2
					c-5.1-0.4-10.1-0.8-14.7-1.3c-8-0.9-15.3-1.9-21.7-3.1c-1.9-0.4-3.8-0.7-5.5-1.1c-0.9-0.2-1.9-0.4-2.8-0.6
					c-6.2-1.5-11.2-3.1-14.7-4.9c-3.8-1.9-5.8-3.9-5.8-6l0,28.2h0c0.1,2.1,2.1,4,5.8,5.9c3.5,1.8,8.5,3.4,14.7,4.9
					c0.9,0.2,1.8,0.4,2.8,0.6c1.8,0.4,3.6,0.7,5.5,1.1c6.4,1.2,13.7,2.2,21.7,3.1c4.7,0.5,9.6,0.9,14.7,1.3c0.9,0.1,1.8,0.1,2.8,0.2
					c1.8,0.1,3.6,0.2,5.5,0.3c7,0.4,14.2,0.7,21.7,0.8c4,0.1,8.1,0.1,12.3,0.1c0.8,0,1.6,0,2.4,0c0.9,0,1.8,0,2.8,0
					c1.8,0,3.7,0,5.5-0.1c7.5-0.1,14.8-0.4,21.7-0.8c5.1-0.3,10-0.6,14.7-1c0.9-0.1,1.8-0.2,2.8-0.2c1.9-0.2,3.7-0.3,5.5-0.5
					c8-0.8,15.3-1.8,21.7-3c5.6-1,10.5-2.1,14.7-3.3c1-0.3,1.9-0.6,2.8-0.8c2.1-0.7,3.9-1.3,5.5-2.1c4.7-2.1,7.3-4.3,7.4-6.6h0
					L1447.7,1161.4z"/><path d="M1447.7,1161.4c0,2.4-2.6,4.6-7.4,6.7c-1.6,0.7-3.4,1.4-5.5,2.1c-0.9,0.3-1.8,0.6-2.8,0.8
					c-4.2,1.2-9.2,2.3-14.7,3.3c-6.5,1.1-13.7,2.2-21.7,3c-1.8,0.2-3.6,0.4-5.5,0.5c-0.9,0.1-1.8,0.2-2.8,0.2
					c-4.7,0.4-9.7,0.7-14.7,1c-7,0.4-14.2,0.6-21.7,0.8c-1.8,0-3.7,0.1-5.5,0.1c-0.9,0-1.8,0-2.8,0c-0.8,0-1.6,0-2.5,0
					c-4.2,0-8.3,0-12.3-0.1c-7.5-0.1-14.8-0.4-21.7-0.8c-1.9-0.1-3.7-0.2-5.5-0.3c-0.9-0.1-1.9-0.1-2.8-0.2
					c-5.1-0.4-10.1-0.8-14.7-1.3c-8-0.9-15.3-1.9-21.7-3.1c-1.9-0.4-3.8-0.7-5.5-1.1c-0.9-0.2-1.9-0.4-2.8-0.6
					c-6.2-1.5-11.2-3.1-14.7-4.9c-3.8-1.9-5.8-3.9-5.8-6l0,28.2h0c0.1,2.1,2.1,4,5.8,5.9c3.5,1.8,8.5,3.4,14.7,4.9
					c0.9,0.2,1.8,0.4,2.8,0.6c1.8,0.4,3.6,0.7,5.5,1.1c6.4,1.2,13.7,2.2,21.7,3.1c4.7,0.5,9.6,0.9,14.7,1.3c0.9,0.1,1.8,0.1,2.8,0.2
					c1.8,0.1,3.6,0.2,5.5,0.3c7,0.4,14.2,0.7,21.7,0.8c4,0.1,8.1,0.1,12.3,0.1c0.8,0,1.6,0,2.4,0c0.9,0,1.8,0,2.8,0
					c1.8,0,3.7,0,5.5-0.1c7.5-0.1,14.8-0.4,21.7-0.8c5.1-0.3,10-0.6,14.7-1c0.9-0.1,1.8-0.2,2.8-0.2c1.9-0.2,3.7-0.3,5.5-0.5
					c8-0.8,15.3-1.8,21.7-3c5.6-1,10.5-2.1,14.7-3.3c1-0.3,1.9-0.6,2.8-0.8c2.1-0.7,3.9-1.3,5.5-2.1c4.7-2.1,7.3-4.3,7.4-6.6h0
					L1447.7,1161.4z" opacity=".3"/><ellipse cx="1340.1" cy="1159.5" fill="#febf00" rx="107.6" ry="17.7"/><path fill="#febf00" d="M1340.1,1148.6c50.1,0,91.2,5.2,95.2,11.9c0.2-0.3,0.3-0.7,0.3-1c0-7.2-42.8-12.9-95.5-12.9
					c-52.7,0-95.5,5.8-95.5,13c0,0.4,0.1,0.7,0.3,1C1248.9,1153.8,1290,1148.6,1340.1,1148.6z"/><path d="M1340.1,1148.6c50.1,0,91.2,5.2,95.2,11.9c0.2-0.3,0.3-0.7,0.3-1c0-7.2-42.8-12.9-95.5-12.9
					c-52.7,0-95.5,5.8-95.5,13c0,0.4,0.1,0.7,0.3,1C1248.9,1153.8,1290,1148.6,1340.1,1148.6z" opacity=".1"/><path fill="#fcd721" d="M1340.2,1172.4c50.1,0,91.2-5.3,95.1-11.9c-3.9-6.7-45-11.9-95.2-11.9c-50.1,0-91.2,5.3-95.1,11.9
					C1248.9,1167.2,1290,1172.4,1340.2,1172.4z"/><path fill="#febf00" d="M1232.5,1159.5l0,26.9h0c0.1,2,2.1,3.9,5.8,5.6v-26.8C1234.6,1163.5,1232.6,1161.6,1232.5,1159.5z"/><path fill="#febf00" d="M1342.6,1204c0.9,0,1.8,0,2.8,0v-26.8c-0.9,0-1.8,0-2.8,0V1204z"/><path fill="#febf00" d="M1297.9,1202.6c0.9,0.1,1.8,0.1,2.8,0.2V1176c-0.9-0.1-1.9-0.1-2.8-0.2V1202.6z"/><path fill="#febf00" d="M1253.1,1196.7c0.9,0.2,1.8,0.4,2.8,0.6v-26.8c-0.9-0.2-1.9-0.4-2.8-0.6V1196.7z"/><path fill="#febf00" d="M1447.7,1159.5c0,2.3-2.6,4.4-7.4,6.4v26.8c4.7-2,7.3-4.1,7.4-6.3h0L1447.7,1159.5z"/><path fill="#febf00" d="M1432.1,1195.5c1-0.3,1.9-0.5,2.8-0.8v-26.8c-0.9,0.3-1.8,0.5-2.8,0.8V1195.5z"/><path fill="#febf00" d="M1390.1,1175.1c-0.9,0.1-1.8,0.2-2.8,0.2c-4.7,0.4-9.7,0.7-14.7,1c-7,0.4-14.2,0.6-21.7,0.7v26.8
							c7.5-0.1,14.8-0.4,21.7-0.7c5.1-0.3,10-0.6,14.7-1c0.9-0.1,1.8-0.2,2.8-0.2c1.9-0.2,3.7-0.3,5.5-0.5c8-0.8,15.3-1.8,21.7-2.9
							v-26.8c-6.5,1.1-13.7,2.1-21.7,2.8C1393.8,1174.8,1392,1175,1390.1,1175.1z"/><g><path fill="#ffdf00" d="M1261.4,1171.6c-1.9-0.3-3.8-0.7-5.5-1.1v26.8c1.8,0.4,3.6,0.7,5.5,1.1c6.4,1.1,13.7,2.1,21.7,2.9
							c4.7,0.5,9.6,0.9,14.7,1.3v-26.8c-5.1-0.4-10.1-0.8-14.7-1.3C1275.1,1173.7,1267.8,1172.7,1261.4,1171.6z"/><path fill="#ffdf00" d="M1238.4,1192.1c3.5,1.7,8.5,3.2,14.7,4.7v-26.8c-6.2-1.4-11.2-3-14.7-4.6V1192.1z"/><path fill="#ffdf00" d="M1327.9,1177.1c-7.5-0.1-14.8-0.4-21.7-0.8c-1.9-0.1-3.7-0.2-5.5-0.3v26.8c1.8,0.1,3.6,0.2,5.5,0.3
							c7,0.4,14.2,0.6,21.7,0.8c4,0.1,8.1,0.1,12.3,0.1c0.8,0,1.6,0,2.4,0v-26.8c-0.8,0-1.6,0-2.5,0
							C1336,1177.2,1331.9,1177.1,1327.9,1177.1z"/><path fill="#ffdf00" d="M1345.4,1204c1.8,0,3.7,0,5.5-0.1v-26.8c-1.8,0-3.7,0.1-5.5,0.1V1204z"/><path fill="#ffdf00" d="M1417.4,1198.6c5.6-0.9,10.5-2,14.7-3.1v-26.8c-4.2,1.1-9.2,2.2-14.7,3.1V1198.6z"/><path fill="#ffdf00" d="M1434.9,1167.9v26.8c2.1-0.6,3.9-1.3,5.5-2v-26.8C1438.8,1166.6,1436.9,1167.2,1434.9,1167.9z"/></g><g><text fill="#fea600" font-family="Calibri-Bold" font-size="20.653" transform="matrix(6.2453 0 0 1 1310.623 1165.901)">$</text></g></g><g><ellipse cx="1340.1" cy="1074.3" fill="#febf00" rx="96.4" ry="93.9"/><ellipse cx="1340.1" cy="1074.3" fill="#febf00" rx="80.9" ry="78.8"/><ellipse cx="1340.1" cy="1074.3" opacity=".1" rx="80.9" ry="78.8"/><ellipse cx="1340.1" cy="1074.3" fill="#fcd721" rx="76.4" ry="74.4"/><text fill="#fea600" font-family="Calibri-Bold" font-size="126.921" transform="matrix(1.013 -.07989 .0812 .9967 1310.769 1115.673)">$</text></g><g><polygon fill="#fff" points="1270.9 1053.4 1261.4 1058.5 1270.9 1063.7 1276 1073.1 1281.2 1063.7 1290.6 1058.5 1281.2 1053.4 1276 1043.9"/><polygon fill="#fff" points="1286 1085.6 1280 1088.8 1286 1092 1289.2 1098 1292.4 1092 1298.4 1088.8 1292.4 1085.6 1289.2 1079.6"/><polygon fill="#fff" points="1251.6 1078 1242.6 1082.9 1251.6 1087.9 1256.6 1096.9 1261.5 1087.9 1270.5 1082.9 1261.5 1078 1256.6 1068.9"/></g><g><polygon fill="#fff" points="1297.9 1207.9 1309.9 1214.5 1297.9 1221.1 1291.3 1233.1 1284.7 1221.1 1272.7 1214.5 1284.7 1207.9 1291.3 1195.9"/><polygon fill="#fff" points="1278.6 1249 1286.2 1253.1 1278.6 1257.3 1274.5 1264.8 1270.3 1257.3 1262.8 1253.1 1270.3 1249 1274.5 1241.4"/><polygon fill="#fff" points="1322.4 1239.3 1334 1245.6 1322.4 1251.9 1316.1 1263.5 1309.8 1251.9 1298.3 1245.6 1309.8 1239.3 1316.1 1227.8"/></g></g><g><polygon fill="#fff" points="1240 287.3 1258.5 297.4 1240 307.5 1229.9 326.1 1219.7 307.5 1201.2 297.4 1219.7 287.3 1229.9 268.8"/><polygon fill="#fff" points="1210.4 350.5 1222 356.9 1210.4 363.3 1204 374.9 1197.6 363.3 1186 356.9 1197.6 350.5 1204 338.9"/><polygon fill="#fff" points="1277.8 335.6 1295.6 345.3 1277.8 355.1 1268.1 372.8 1258.4 355.1 1240.7 345.3 1258.4 335.6 1268.1 317.9"/></g><g><polygon fill="#fff" points="1826.6 359.1 1845.1 369.2 1826.6 379.3 1816.5 397.9 1806.4 379.3 1787.8 369.2 1806.4 359.1 1816.5 340.6"/><polygon fill="#fff" points="1797 422.3 1808.7 428.7 1797 435.1 1790.6 446.7 1784.2 435.1 1772.6 428.7 1784.2 422.3 1790.6 410.7"/><polygon fill="#fff" points="1864.5 407.4 1882.2 417.1 1864.5 426.8 1854.7 444.6 1845 426.8 1827.3 417.1 1845 407.4 1854.7 389.7"/></g></svg>